<svg width="14" height="13" viewBox="0 0 14 13" fill="none" xmlns="http://www.w3.org/2000/svg">
<path d="M4.08358 3.41667V2.08333C4.08358 1.72971 4.22405 1.39057 4.4741 1.14052C4.72415 0.890476 5.06329 0.75 5.41691 0.75H8.08358C8.4372 0.75 8.77634 0.890476 9.02639 1.14052C9.27644 1.39057 9.41691 1.72971 9.41691 2.08333V3.41667M6.75024 6.75V6.75667M0.750244 7.41667C2.6113 8.35446 4.66626 8.84295 6.75024 8.84295C8.83422 8.84295 10.8892 8.35446 12.7502 7.41667M0.750244 4.75C0.750244 4.39638 0.89072 4.05724 1.14077 3.80719C1.39082 3.55714 1.72996 3.41667 2.08358 3.41667H11.4169C11.7705 3.41667 12.1097 3.55714 12.3597 3.80719C12.6098 4.05724 12.7502 4.39638 12.7502 4.75V10.75C12.7502 11.1036 12.6098 11.4428 12.3597 11.6928C12.1097 11.9429 11.7705 12.0833 11.4169 12.0833H2.08358C1.72996 12.0833 1.39082 11.9429 1.14077 11.6928C0.89072 11.4428 0.750244 11.1036 0.750244 10.75V4.75Z" stroke="#64748B" stroke-width="1.5" stroke-linecap="round" stroke-linejoin="round"/>
</svg>
