<svg width="34" height="34" viewBox="0 0 34 34" fill="none" xmlns="http://www.w3.org/2000/svg">
<foreignObject x="-64" y="-64" width="162" height="162"><div xmlns="http://www.w3.org/1999/xhtml" style="backdrop-filter:blur(32px);clip-path:url(#bgblur_0_6145_2722_clip_path);height:100%;width:100%"></div></foreignObject><g data-figma-bg-blur-radius="64">
<path d="M0 17C0 7.61116 7.61116 0 17 0C26.3888 0 34 7.61116 34 17C34 26.3888 26.3888 34 17 34C7.61116 34 0 26.3888 0 17Z" fill="#E2E8F0"/>
<path d="M22 12L12 22M12 12L22 22" stroke="#64748B" stroke-width="1.375" stroke-linecap="round" stroke-linejoin="round"/>
</g>
<defs>
<clipPath id="bgblur_0_6145_2722_clip_path" transform="translate(64 64)"><path d="M0 17C0 7.61116 7.61116 0 17 0C26.3888 0 34 7.61116 34 17C34 26.3888 26.3888 34 17 34C7.61116 34 0 26.3888 0 17Z"/>
</clipPath></defs>
</svg>
