<svg width="80" height="80" viewBox="0 0 80 80" fill="none" xmlns="http://www.w3.org/2000/svg">
<path d="M40 70.6667C53.9912 70.6667 65.3333 59.3245 65.3333 45.3333C65.3333 31.3421 53.9912 20 40 20C26.0087 20 14.6666 31.3421 14.6666 45.3333C14.6666 59.3245 26.0087 70.6667 40 70.6667Z" fill="#219CF7"/>
<path d="M6.66663 39.9999V34.6666C6.66663 25.826 10.1785 17.3476 16.4297 11.0964C22.6809 4.84515 31.1594 1.33325 40 1.33325C48.8405 1.33325 57.319 4.84515 63.5702 11.0964C69.8214 17.3476 73.3333 25.826 73.3333 34.6666V39.9999H68V34.6666C68 27.2405 65.05 20.1186 59.799 14.8676C54.5479 9.61658 47.426 6.66659 40 6.66659C32.5739 6.66659 25.452 9.61658 20.201 14.8676C14.95 20.1186 12 27.2405 12 34.6666V39.9999H6.66663ZM73.3333 58.6666C73.3333 63.6173 71.3666 68.3652 67.866 71.8659C64.3653 75.3666 59.6173 77.3333 54.6666 77.3333H44V71.9999H54.6666C58.2029 71.9999 61.5942 70.5952 64.0947 68.0947C66.5952 65.5942 68 62.2028 68 58.6666V55.9999H73.3333V58.6666Z" fill="#D6D8E5"/>
<path d="M6.66665 37.3333H12C12.7072 37.3333 13.3855 37.6142 13.8856 38.1143C14.3857 38.6144 14.6666 39.2927 14.6666 39.9999V55.9999C14.6666 56.7072 14.3857 57.3854 13.8856 57.8855C13.3855 58.3856 12.7072 58.6666 12 58.6666H6.66665C5.25216 58.6666 3.8956 58.1047 2.89541 57.1045C1.89522 56.1043 1.33331 54.7477 1.33331 53.3333V42.6666C1.33331 41.2521 1.89522 39.8955 2.89541 38.8954C3.8956 37.8952 5.25216 37.3333 6.66665 37.3333ZM73.3333 58.6666H68C67.2927 58.6666 66.6145 58.3856 66.1144 57.8855C65.6143 57.3854 65.3333 56.7072 65.3333 55.9999V39.9999C65.3333 39.2927 65.6143 38.6144 66.1144 38.1143C66.6145 37.6142 67.2927 37.3333 68 37.3333H73.3333C74.7478 37.3333 76.1044 37.8952 77.1046 38.8954C78.1047 39.8955 78.6666 41.2521 78.6666 42.6666V53.3333C78.6666 54.7477 78.1047 56.1043 77.1046 57.1045C76.1044 58.1047 74.7478 58.6666 73.3333 58.6666Z" fill="#237EB5"/>
<path d="M37.3333 70.6665H44C44.7072 70.6665 45.3855 70.9475 45.8856 71.4476C46.3857 71.9476 46.6666 72.6259 46.6666 73.3332V75.9998C46.6666 76.7071 46.3857 77.3854 45.8856 77.8855C45.3855 78.3856 44.7072 78.6665 44 78.6665H37.3333C36.2724 78.6665 35.255 78.2451 34.5049 77.4949C33.7547 76.7448 33.3333 75.7274 33.3333 74.6665C33.3333 73.6056 33.7547 72.5882 34.5049 71.8381C35.255 71.0879 36.2724 70.6665 37.3333 70.6665Z" fill="#1E2028"/>
<path d="M24.784 47.8665C26.2173 46.8238 28 45.5278 28 42.9092C28.0295 41.8169 27.6252 40.7574 26.8756 39.9623C26.126 39.1672 25.0921 38.7014 24 38.6665C23.166 38.7178 22.3624 38.9986 21.6779 39.4779C20.9934 39.9572 20.4547 40.6163 20.1213 41.3825C19.9768 41.7026 19.9644 42.0668 20.0869 42.3959C20.2093 42.7251 20.4566 42.9927 20.7752 43.1406C21.0937 43.2884 21.4578 43.3046 21.7882 43.1857C22.1186 43.0667 22.3888 42.8222 22.54 42.5052C22.54 42.4932 23.128 41.3332 24 41.3332C24.3851 41.3671 24.7412 41.5517 24.9909 41.8469C25.2406 42.142 25.3636 42.5238 25.3333 42.9092C25.3333 44.1092 24.568 44.7252 23.216 45.7092C21.7827 46.7505 20 48.0478 20 50.6665C20 51.0201 20.1405 51.3593 20.3905 51.6093C20.6406 51.8594 20.9797 51.9998 21.3333 51.9998H26.6667C27.0203 51.9998 27.3594 51.8594 27.6095 51.6093C27.8595 51.3593 28 51.0201 28 50.6665C28 50.3129 27.8595 49.9737 27.6095 49.7237C27.3594 49.4736 27.0203 49.3332 26.6667 49.3332H23.1C23.5883 48.7663 24.1554 48.2723 24.784 47.8665ZM38.6667 46.6665H37.3333V45.3332C37.3333 44.9795 37.1929 44.6404 36.9428 44.3904C36.6928 44.1403 36.3536 43.9998 36 43.9998C35.6464 43.9998 35.3072 44.1403 35.0572 44.3904C34.8071 44.6404 34.6667 44.9795 34.6667 45.3332V46.6665H33.3333V39.9998C33.3333 39.6462 33.1929 39.3071 32.9428 39.057C32.6928 38.807 32.3536 38.6665 32 38.6665C31.6464 38.6665 31.3072 38.807 31.0572 39.057C30.8071 39.3071 30.6667 39.6462 30.6667 39.9998V47.9998C30.6667 48.3535 30.8071 48.6926 31.0572 48.9426C31.3072 49.1927 31.6464 49.3332 32 49.3332H34.6667V50.6665C34.6667 51.0201 34.8071 51.3593 35.0572 51.6093C35.3072 51.8594 35.6464 51.9998 36 51.9998C36.3536 51.9998 36.6928 51.8594 36.9428 51.6093C37.1929 51.3593 37.3333 51.0201 37.3333 50.6665V49.3332H38.6667C39.0203 49.3332 39.3594 49.1927 39.6095 48.9426C39.8595 48.6926 40 48.3535 40 47.9998C40 47.6462 39.8595 47.3071 39.6095 47.057C39.3594 46.807 39.0203 46.6665 38.6667 46.6665Z" fill="white"/>
<path d="M45.6 37.3599C45.4283 37.3244 45.2513 37.3234 45.0792 37.3569C44.9071 37.3903 44.7434 37.4576 44.5975 37.5549C44.4517 37.6521 44.3265 37.7774 44.2295 37.9234C44.1324 38.0693 44.0653 38.2331 44.032 38.4053L41.3653 51.7386C41.296 52.0836 41.3658 52.442 41.5596 52.7358C41.7534 53.0295 42.0555 53.2347 42.4 53.3066C42.4877 53.3249 42.5771 53.3339 42.6667 53.3333C42.9738 53.333 43.2715 53.2268 43.5093 53.0324C43.7471 52.838 43.9106 52.5675 43.972 52.2666L46.6387 38.9333C46.7095 38.5869 46.6399 38.2266 46.4451 37.9315C46.2503 37.6365 45.9463 37.4309 45.6 37.3599Z" fill="#237EB5"/>
<path d="M58.5 39.3545C58.3847 39.1461 58.2157 38.9723 58.0105 38.8513C57.8053 38.7303 57.5715 38.6665 57.3333 38.6665H50.6666C50.313 38.6665 49.9739 38.807 49.7238 39.057C49.4738 39.3071 49.3333 39.6462 49.3333 39.9998C49.3333 40.3535 49.4738 40.6926 49.7238 40.9426C49.9739 41.1927 50.313 41.3332 50.6666 41.3332H54.9333L49.5426 49.9598C49.3552 50.2604 49.2949 50.6231 49.3749 50.9682C49.4549 51.3133 49.6687 51.6124 49.9693 51.7998C50.2699 51.9873 50.6326 52.0476 50.9777 51.9676C51.3227 51.8876 51.6219 51.6737 51.8093 51.3732L58.476 40.7065C58.6002 40.5038 58.6679 40.2715 58.6721 40.0338C58.6763 39.7961 58.6169 39.5615 58.5 39.3545Z" fill="white"/>
</svg>
