<svg width="24" height="24" viewBox="0 0 24 24" fill="none" xmlns="http://www.w3.org/2000/svg">
                              <path d="M19.906 12.9959L7.18597 6.7959L7.60697 7.4679L7.60097 5.0109C7.60066 4.8774 7.56472 4.7464 7.49687 4.63143C7.42901 4.51646 7.3317 4.42169 7.21497 4.3569L5.20697 3.2439C4.25697 2.7759 3.14897 3.1529 2.69697 4.0699C2.58957 4.29092 2.52606 4.53069 2.50997 4.7759L2.21497 10.0179C2.18342 10.5931 2.32096 11.1649 2.61062 11.6628C2.90027 12.1608 3.32938 12.563 3.84497 12.8199L7.46297 14.6199L7.34597 13.3499L2.88497 16.7089C2.63403 16.8988 2.43566 17.1495 2.30865 17.4374C2.18163 17.7254 2.13015 18.0409 2.15908 18.3543C2.18801 18.6676 2.2964 18.9684 2.47399 19.2282C2.65158 19.488 2.8925 19.6982 3.17397 19.8389L5.05697 20.7719C5.29914 20.8919 5.56466 20.9575 5.83487 20.9639C6.10508 20.9702 6.3734 20.9174 6.62097 20.8089L14.002 17.5609L13.366 17.5469L16.806 19.2569C17.2169 19.4611 17.6641 19.5824 18.1219 19.6138C18.5798 19.6451 19.0393 19.586 19.4743 19.4398C19.9093 19.2936 20.3112 19.0632 20.6572 18.7616C21.0031 18.4601 21.2863 18.0934 21.4905 17.6824C21.6947 17.2714 21.8159 16.8243 21.8473 16.3664C21.8787 15.9086 21.8196 15.4491 21.6734 15.0141C21.5272 14.5791 21.2968 14.1771 20.9952 13.8312C20.6937 13.4853 20.3269 13.2021 19.916 12.9979C19.8122 12.9464 19.6978 12.9198 19.582 12.9199H19.577V13.6699L19.906 12.9959ZM19.248 14.3439C19.3504 14.3939 19.463 14.4199 19.577 14.4199H19.582V13.6699L19.248 14.3419C19.4872 14.4555 19.7014 14.6156 19.8781 14.8129C20.0548 15.0102 20.1904 15.2407 20.277 15.491C20.3637 15.7412 20.3996 16.0062 20.3826 16.2705C20.3657 16.5348 20.2963 16.7931 20.1785 17.0303C20.0607 17.2675 19.8968 17.4788 19.6964 17.652C19.496 17.8251 19.2631 17.9566 19.0113 18.0388C18.7596 18.1209 18.4939 18.1521 18.23 18.1305C17.966 18.1089 17.709 18.0349 17.474 17.9129L14.034 16.2029C13.9355 16.1541 13.8274 16.1275 13.7175 16.1251C13.6076 16.1227 13.4985 16.1445 13.398 16.1889L6.01797 19.4359C5.97118 19.4561 5.92054 19.4659 5.86959 19.4645C5.81863 19.4631 5.76859 19.4506 5.72297 19.4279L3.84197 18.4959C3.78928 18.469 3.74428 18.4291 3.71116 18.3801C3.67804 18.3311 3.6579 18.2745 3.6526 18.2155C3.64731 18.1566 3.65704 18.0973 3.68089 18.0431C3.70474 17.989 3.74192 17.9418 3.78897 17.9059L8.24897 14.5479C8.35092 14.4709 8.43151 14.3691 8.4831 14.2522C8.53469 14.1354 8.55556 14.0072 8.54374 13.88C8.53192 13.7528 8.4878 13.6307 8.41556 13.5254C8.34332 13.42 8.24536 13.3348 8.13097 13.2779L4.51297 11.4779C4.25981 11.3515 4.04916 11.1537 3.90701 10.9091C3.76486 10.6644 3.69741 10.3834 3.71297 10.1009L4.00797 4.8629C4.0119 4.80556 4.02988 4.75007 4.06034 4.70133C4.09079 4.65259 4.13278 4.61209 4.1826 4.58343C4.23242 4.55477 4.28852 4.53881 4.34597 4.53697C4.40341 4.53514 4.46043 4.54748 4.51197 4.5729L6.48697 5.6689L6.10097 5.0149L6.10697 7.4719C6.10734 7.61206 6.14698 7.74931 6.2214 7.86809C6.29581 7.98687 6.40202 8.08241 6.52797 8.1439L19.248 14.3439ZM17.014 11.9249L16.114 7.0069C16.0618 6.72479 15.9448 6.45868 15.7721 6.22959C15.5994 6.0005 15.3758 5.81471 15.119 5.6869L13.266 4.7669C12.9841 4.62771 12.6713 4.56267 12.3573 4.57791C12.0433 4.59315 11.7383 4.68817 11.4712 4.854C11.2041 5.01983 10.9836 5.251 10.8307 5.52568C10.6777 5.80036 10.5973 6.1095 10.597 6.4239V9.6579C10.597 9.85681 10.676 10.0476 10.8166 10.1882C10.9573 10.3289 11.1481 10.4079 11.347 10.4079C11.5459 10.4079 11.7366 10.3289 11.8773 10.1882C12.018 10.0476 12.097 9.85681 12.097 9.6579V6.4249C12.0971 6.36545 12.1124 6.30702 12.1414 6.25511C12.1703 6.2032 12.2121 6.15953 12.2626 6.12821C12.3131 6.09689 12.3708 6.07896 12.4302 6.07611C12.4895 6.07325 12.5487 6.08557 12.602 6.1119L14.452 7.0299C14.5002 7.05415 14.5422 7.08926 14.5747 7.13246C14.6071 7.17565 14.6291 7.22578 14.639 7.2789L15.539 12.1949C15.5545 12.2938 15.5896 12.3886 15.6423 12.4737C15.695 12.5588 15.7643 12.6325 15.8459 12.6904C15.9275 12.7484 16.0199 12.7894 16.1177 12.811C16.2154 12.8327 16.3165 12.8346 16.415 12.8165C16.5134 12.7985 16.6073 12.7609 16.691 12.7061C16.7748 12.6512 16.8467 12.5801 16.9025 12.497C16.9583 12.4139 16.9969 12.3205 17.0161 12.2222C17.0352 12.124 17.0345 12.0229 17.014 11.9249Z" fill="#94A3B8"></path>
                           </svg>