<svg width="40" height="40" viewBox="0 0 40 40" fill="none" xmlns="http://www.w3.org/2000/svg">
<g clip-path="url(#clip0_6643_5213)">
<path d="M17.4224 40H2.81152V1.43694C2.81152 0.643294 3.45482 0 4.24839 0H15.9855C16.7791 0 17.4224 0.643294 17.4224 1.43694V40Z" fill="url(#paint0_linear_6643_5213)"/>
<path d="M6.4513 2.16101H8.01883C8.21427 2.16101 8.40172 2.23865 8.53992 2.37686C8.67813 2.51506 8.75577 2.7025 8.75577 2.89795V4.46548C8.75577 4.66093 8.67813 4.84837 8.53992 4.98658C8.40172 5.12478 8.21427 5.20242 8.01883 5.20242H6.4513C6.25585 5.20242 6.0684 5.12478 5.9302 4.98658C5.792 4.84837 5.71436 4.66093 5.71436 4.46548V2.89795C5.71428 2.49097 6.04424 2.16101 6.4513 2.16101Z" fill="url(#paint1_linear_6643_5213)"/>
<path d="M12.2152 2.16101H13.7827C13.9782 2.16101 14.1656 2.23865 14.3038 2.37686C14.442 2.51506 14.5197 2.7025 14.5197 2.89795V4.46548C14.5197 4.66093 14.442 4.84837 14.3038 4.98658C14.1656 5.12478 13.9782 5.20242 13.7827 5.20242H12.2152C12.0198 5.20242 11.8323 5.12478 11.6941 4.98658C11.5559 4.84837 11.4783 4.66093 11.4783 4.46548V2.89795C11.4783 2.7025 11.5559 2.51506 11.6941 2.37686C11.8323 2.23865 12.0198 2.16101 12.2152 2.16101Z" fill="url(#paint2_linear_6643_5213)"/>
<path d="M6.4513 8.43701H8.01883C8.21427 8.43701 8.40172 8.51465 8.53992 8.65286C8.67813 8.79106 8.75577 8.9785 8.75577 9.17395V10.7415C8.75577 10.8383 8.73671 10.9341 8.69967 11.0235C8.66264 11.1129 8.60835 11.1941 8.53992 11.2626C8.47149 11.331 8.39025 11.3853 8.30084 11.4223C8.21143 11.4594 8.1156 11.4784 8.01883 11.4784H6.4513C6.35452 11.4784 6.25869 11.4594 6.16928 11.4223C6.07987 11.3853 5.99863 11.331 5.9302 11.2626C5.86177 11.1941 5.80749 11.1129 5.77045 11.0235C5.73342 10.9341 5.71436 10.8383 5.71436 10.7415V9.17395C5.71428 8.76697 6.04424 8.43701 6.4513 8.43701Z" fill="url(#paint3_linear_6643_5213)"/>
<path d="M12.2152 8.43701H13.7827C13.9782 8.43701 14.1656 8.51465 14.3038 8.65286C14.442 8.79106 14.5197 8.9785 14.5197 9.17395V10.7415C14.5197 10.8383 14.5006 10.9341 14.4636 11.0235C14.4266 11.1129 14.3723 11.1941 14.3038 11.2626C14.2354 11.331 14.1542 11.3853 14.0648 11.4223C13.9753 11.4594 13.8795 11.4784 13.7827 11.4784H12.2152C12.1184 11.4784 12.0226 11.4594 11.9332 11.4223C11.8438 11.3853 11.7625 11.331 11.6941 11.2626C11.6257 11.1941 11.5714 11.1129 11.5344 11.0235C11.4973 10.9341 11.4783 10.8383 11.4783 10.7415V9.17395C11.4783 8.9785 11.5559 8.79106 11.6941 8.65286C11.8323 8.51465 12.0198 8.43701 12.2152 8.43701Z" fill="url(#paint4_linear_6643_5213)"/>
<path d="M6.4513 14.713H8.01883C8.21427 14.713 8.40172 14.7907 8.53992 14.9289C8.67813 15.0671 8.75577 15.2545 8.75577 15.45V17.0175C8.75577 17.2129 8.67813 17.4004 8.53992 17.5386C8.40172 17.6768 8.21427 17.7544 8.01883 17.7544H6.4513C6.25585 17.7544 6.0684 17.6768 5.9302 17.5386C5.792 17.4004 5.71436 17.2129 5.71436 17.0175V15.45C5.71428 15.043 6.04424 14.713 6.4513 14.713Z" fill="url(#paint5_linear_6643_5213)"/>
<path d="M12.2152 14.713H13.7827C13.9782 14.713 14.1656 14.7907 14.3038 14.9289C14.442 15.0671 14.5197 15.2545 14.5197 15.45V17.0175C14.5197 17.2129 14.442 17.4004 14.3038 17.5386C14.1656 17.6768 13.9782 17.7544 13.7827 17.7544H12.2152C12.0198 17.7544 11.8323 17.6768 11.6941 17.5386C11.5559 17.4004 11.4783 17.2129 11.4783 17.0175V15.45C11.4783 15.2545 11.5559 15.0671 11.6941 14.9289C11.8323 14.7907 12.0198 14.713 12.2152 14.713Z" fill="url(#paint6_linear_6643_5213)"/>
<path d="M6.4513 20.989H8.01883C8.21427 20.989 8.40172 21.0667 8.53992 21.2049C8.67813 21.3431 8.75577 21.5305 8.75577 21.726V23.2935C8.75577 23.3903 8.73671 23.4861 8.69967 23.5755C8.66264 23.6649 8.60835 23.7462 8.53992 23.8146C8.47149 23.883 8.39025 23.9373 8.30084 23.9743C8.21143 24.0114 8.1156 24.0304 8.01883 24.0304H6.4513C6.35452 24.0304 6.25869 24.0114 6.16928 23.9743C6.07987 23.9373 5.99863 23.883 5.9302 23.8146C5.86177 23.7462 5.80749 23.6649 5.77045 23.5755C5.73342 23.4861 5.71436 23.3903 5.71436 23.2935V21.726C5.71428 21.319 6.04424 20.989 6.4513 20.989Z" fill="url(#paint7_linear_6643_5213)"/>
<path d="M12.2152 20.989H13.7827C13.9782 20.989 14.1656 21.0667 14.3038 21.2049C14.442 21.3431 14.5197 21.5305 14.5197 21.726V23.2935C14.5197 23.3903 14.5006 23.4861 14.4636 23.5755C14.4266 23.6649 14.3723 23.7462 14.3038 23.8146C14.2354 23.883 14.1542 23.9373 14.0648 23.9743C13.9753 24.0114 13.8795 24.0304 13.7827 24.0304H12.2152C12.1184 24.0304 12.0226 24.0114 11.9332 23.9743C11.8438 23.9373 11.7625 23.883 11.6941 23.8146C11.6257 23.7462 11.5714 23.6649 11.5344 23.5755C11.4973 23.4861 11.4783 23.3903 11.4783 23.2935V21.726C11.4783 21.5305 11.5559 21.3431 11.6941 21.2049C11.8323 21.0667 12.0198 20.989 12.2152 20.989Z" fill="url(#paint8_linear_6643_5213)"/>
<path d="M6.4513 27.265H8.01883C8.21427 27.265 8.40172 27.3427 8.53992 27.4809C8.67813 27.6191 8.75577 27.8065 8.75577 28.002V29.5695C8.75577 29.7649 8.67813 29.9524 8.53992 30.0906C8.40172 30.2288 8.21427 30.3064 8.01883 30.3064H6.4513C6.25585 30.3064 6.0684 30.2288 5.9302 30.0906C5.792 29.9524 5.71436 29.7649 5.71436 29.5695V28.002C5.71428 27.5949 6.04424 27.265 6.4513 27.265Z" fill="url(#paint9_linear_6643_5213)"/>
<path d="M12.2152 27.265H13.7827C13.9782 27.265 14.1656 27.3427 14.3038 27.4809C14.442 27.6191 14.5197 27.8065 14.5197 28.002V29.5695C14.5197 29.7649 14.442 29.9524 14.3038 30.0906C14.1656 30.2288 13.9782 30.3064 13.7827 30.3064H12.2152C12.0198 30.3064 11.8323 30.2288 11.6941 30.0906C11.5559 29.9524 11.4783 29.7649 11.4783 29.5695V28.002C11.4783 27.8065 11.5559 27.6191 11.6941 27.4809C11.8323 27.3427 12.0198 27.265 12.2152 27.265Z" fill="url(#paint10_linear_6643_5213)"/>
<path d="M36.8265 40H26.2971V15.3626C26.2971 14.8235 26.7341 14.3865 27.2732 14.3865H35.8505C36.3895 14.3865 36.8265 14.8235 36.8265 15.3626V40Z" fill="url(#paint11_linear_6643_5213)"/>
<path d="M8.64941 6.14319H31.3506V40.0001H8.64941V6.14319Z" fill="url(#paint12_linear_6643_5213)"/>
<path d="M8.64941 8.07684L31.3506 30.778V6.14319H8.64941V8.07684Z" fill="url(#paint13_linear_6643_5213)"/>
<path d="M31.5502 8.07677H8.44946C7.57071 8.07677 6.8584 7.36445 6.8584 6.48571V5.80053C6.8584 4.92179 7.57071 4.20947 8.44946 4.20947H31.5502C32.4289 4.20947 33.1412 4.92179 33.1412 5.80053V6.48571C33.1412 7.36445 32.4289 8.07677 31.5502 8.07677Z" fill="url(#paint14_linear_6643_5213)"/>
<path d="M15.464 10.3353C15.2577 10.1041 14.9584 10.0361 14.6241 10.0361H12.2282C11.6061 10.0361 11.1802 10.462 11.1802 11.0841V13.4801C11.1802 13.8143 11.2482 14.1136 11.4794 14.32L14.347 17.1876C14.5533 17.4188 14.8526 17.5652 15.1869 17.5652H17.5828C18.205 17.5652 18.7093 17.0609 18.7093 16.4388V14.0429C18.7093 13.7086 18.5628 13.4093 18.3316 13.203L15.464 10.3353Z" fill="url(#paint15_linear_6643_5213)"/>
<path d="M14.5026 9.87073H12.1067C11.4845 9.87073 10.9802 10.375 10.9802 10.9972V13.3931C10.9802 14.0152 11.4845 14.5195 12.1067 14.5195H14.5026C15.1247 14.5195 15.629 14.0152 15.629 13.3931V10.9972C15.629 10.375 15.1247 9.87073 14.5026 9.87073Z" fill="url(#paint16_linear_6643_5213)"/>
<path d="M21.7846 10.3353C21.5783 10.1041 21.2789 10.0361 20.9447 10.0361H18.5487C17.9266 10.0361 17.5007 10.462 17.5007 11.0841V13.4801C17.5007 13.8143 17.5687 14.1136 17.7999 14.32L20.6676 17.1876C20.8738 17.4188 21.1732 17.5652 21.5075 17.5652H23.9034C24.5255 17.5652 25.0298 17.0609 25.0298 16.4388V14.0429C25.0298 13.7086 24.8834 13.4093 24.6522 13.203L21.7846 10.3353Z" fill="url(#paint17_linear_6643_5213)"/>
<path d="M20.8233 14.5194H18.4275C17.8053 14.5194 17.301 14.0151 17.301 13.393V10.997C17.301 10.3749 17.8053 9.87061 18.4275 9.87061H20.8234C21.4455 9.87061 21.9498 10.3749 21.9498 10.997V13.393C21.9497 14.0151 21.4454 14.5194 20.8233 14.5194Z" fill="url(#paint18_linear_6643_5213)"/>
<path d="M28.1051 10.3353C27.8989 10.1041 27.5995 10.0361 27.2652 10.0361H24.8693C24.2472 10.0361 23.8213 10.462 23.8213 11.0841V13.4801C23.8213 13.8143 23.8893 14.1136 24.1205 14.32L26.9881 17.1876C27.1944 17.4188 27.4938 17.5652 27.828 17.5652H30.224C30.8461 17.5652 31.3504 17.0609 31.3504 16.4388V14.0429C31.3504 13.7086 31.204 13.4093 30.9727 13.203L28.1051 10.3353Z" fill="url(#paint19_linear_6643_5213)"/>
<path d="M27.1437 14.5194H24.7478C24.1257 14.5194 23.6213 14.0151 23.6213 13.393V10.997C23.6213 10.3749 24.1257 9.87061 24.7478 9.87061H27.1437C27.7658 9.87061 28.2701 10.3749 28.2701 10.997V13.393C28.2701 14.0151 27.7658 14.5194 27.1437 14.5194Z" fill="url(#paint20_linear_6643_5213)"/>
<path d="M15.464 17.5855C15.2577 17.3543 14.9584 17.2863 14.6241 17.2863H12.2282C11.6061 17.2863 11.1802 17.7121 11.1802 18.3343V20.7302C11.1802 21.0645 11.2482 21.3637 11.4794 21.5701L14.347 24.4377C14.5533 24.6689 14.8526 24.8154 15.1869 24.8154H17.5828C18.205 24.8154 18.7093 24.311 18.7093 23.6889V21.293C18.7093 20.9587 18.5628 20.6594 18.3316 20.4531L15.464 17.5855Z" fill="url(#paint21_linear_6643_5213)"/>
<path d="M14.5026 17.1207H12.1067C11.4845 17.1207 10.9802 17.625 10.9802 18.2472V20.6431C10.9802 21.2652 11.4845 21.7695 12.1067 21.7695H14.5026C15.1247 21.7695 15.629 21.2652 15.629 20.6431V18.2472C15.629 17.625 15.1247 17.1207 14.5026 17.1207Z" fill="url(#paint22_linear_6643_5213)"/>
<path d="M21.7846 17.5855C21.5783 17.3543 21.2789 17.2863 20.9447 17.2863H18.5487C17.9266 17.2863 17.5007 17.7121 17.5007 18.3343V20.7302C17.5007 21.0645 17.5687 21.3637 17.7999 21.5701L20.6676 24.4377C20.8738 24.6689 21.1732 24.8154 21.5075 24.8154H23.9034C24.5255 24.8154 25.0298 24.311 25.0298 23.6889V21.293C25.0298 20.9587 24.8834 20.6594 24.6522 20.4531L21.7846 17.5855Z" fill="url(#paint23_linear_6643_5213)"/>
<path d="M20.8233 21.7695H18.4275C17.8053 21.7695 17.301 21.2652 17.301 20.6431V18.2472C17.301 17.625 17.8053 17.1207 18.4275 17.1207H20.8234C21.4455 17.1207 21.9498 17.625 21.9498 18.2472V20.6432C21.9497 21.2653 21.4454 21.7695 20.8233 21.7695Z" fill="url(#paint24_linear_6643_5213)"/>
<path d="M28.1051 17.5855C27.8989 17.3543 27.5995 17.2863 27.2652 17.2863H24.8693C24.2472 17.2863 23.8213 17.7121 23.8213 18.3343V20.7302C23.8213 21.0645 23.8893 21.3637 24.1205 21.5701L26.9881 24.4377C27.1944 24.6689 27.4938 24.8154 27.828 24.8154H30.224C30.8461 24.8154 31.3504 24.311 31.3504 23.6889V21.293C31.3504 20.9587 31.204 20.6594 30.9727 20.4531L28.1051 17.5855Z" fill="url(#paint25_linear_6643_5213)"/>
<path d="M27.1437 21.7695H24.7478C24.1257 21.7695 23.6213 21.2652 23.6213 20.6431V18.2472C23.6213 17.625 24.1257 17.1207 24.7478 17.1207H27.1437C27.7658 17.1207 28.2701 17.625 28.2701 18.2472V20.6432C28.2701 21.2653 27.7658 21.7695 27.1437 21.7695Z" fill="url(#paint26_linear_6643_5213)"/>
<path d="M15.464 24.8355C15.2577 24.6043 14.9584 24.5363 14.6241 24.5363H12.2282C11.6061 24.5363 11.1802 24.9621 11.1802 25.5843V27.9802C11.1802 28.3144 11.2482 28.6137 11.4794 28.8201L14.347 31.6877C14.5533 31.9189 14.8526 32.0654 15.1869 32.0654H17.5828C18.205 32.0654 18.7093 31.561 18.7093 30.9389V28.543C18.7093 28.2087 18.5628 27.9094 18.3316 27.7031L15.464 24.8355Z" fill="url(#paint27_linear_6643_5213)"/>
<path d="M14.5026 24.3708H12.1067C11.4845 24.3708 10.9802 24.8752 10.9802 25.4973V27.8932C10.9802 28.5153 11.4845 29.0196 12.1067 29.0196H14.5026C15.1247 29.0196 15.629 28.5153 15.629 27.8932V25.4973C15.629 24.8752 15.1247 24.3708 14.5026 24.3708Z" fill="url(#paint28_linear_6643_5213)"/>
<path d="M21.7846 24.8355C21.5783 24.6043 21.2789 24.5363 20.9447 24.5363H18.5487C17.9266 24.5363 17.5007 24.9621 17.5007 25.5843V27.9802C17.5007 28.3144 17.5687 28.6137 17.7999 28.8201L20.6676 31.6877C20.8738 31.9189 21.1732 32.0654 21.5075 32.0654H23.9034C24.5255 32.0654 25.0298 31.561 25.0298 30.9389V28.543C25.0298 28.2087 24.8834 27.9094 24.6522 27.7031L21.7846 24.8355Z" fill="url(#paint29_linear_6643_5213)"/>
<path d="M20.8233 29.0196H18.4275C17.8053 29.0196 17.301 28.5153 17.301 27.8932V25.4973C17.301 24.8752 17.8053 24.3708 18.4275 24.3708H20.8234C21.4455 24.3708 21.9498 24.8752 21.9498 25.4973V27.8932C21.9497 28.5153 21.4454 29.0196 20.8233 29.0196Z" fill="url(#paint30_linear_6643_5213)"/>
<path d="M28.1051 24.8355C27.8989 24.6043 27.5995 24.5363 27.2652 24.5363H24.8693C24.2472 24.5363 23.8213 24.9621 23.8213 25.5843V27.9802C23.8213 28.3144 23.8893 28.6137 24.1205 28.8201L26.9881 31.6877C27.1944 31.9189 27.4938 32.0654 27.828 32.0654H30.224C30.8461 32.0654 31.3504 31.561 31.3504 30.9389V28.543C31.3504 28.2087 31.204 27.9094 30.9727 27.7031L28.1051 24.8355Z" fill="url(#paint31_linear_6643_5213)"/>
<path d="M27.1437 29.0196H24.7478C24.1257 29.0196 23.6213 28.5153 23.6213 27.8932V25.4973C23.6213 24.8752 24.1257 24.3708 24.7478 24.3708H27.1437C27.7658 24.3708 28.2701 24.8752 28.2701 25.4973V27.8932C28.2701 28.5153 27.7658 29.0196 27.1437 29.0196Z" fill="url(#paint32_linear_6643_5213)"/>
<path d="M23.4973 40H16.5024V31.226C16.5024 31.1448 16.5184 31.0644 16.5495 30.9894C16.5806 30.9144 16.6261 30.8462 16.6836 30.7888C16.741 30.7314 16.8091 30.6858 16.8842 30.6547C16.9592 30.6237 17.0396 30.6077 17.1208 30.6077H22.879C23.043 30.6077 23.2003 30.6728 23.3162 30.7888C23.4322 30.9047 23.4973 31.062 23.4973 31.226V40Z" fill="url(#paint33_linear_6643_5213)"/>
<path d="M22.8791 30.6078H20V40H23.4974V31.2261C23.4974 31.0621 23.4323 30.9048 23.3163 30.7889C23.2004 30.6729 23.0431 30.6078 22.8791 30.6078Z" fill="url(#paint34_linear_6643_5213)"/>
<path d="M10.3111 40H3.18545C2.37714 40 1.72192 39.3448 1.72192 38.5365V37.8527C1.72192 35.4809 3.64467 33.5581 6.01651 33.5581C8.38836 33.5581 10.3111 35.4809 10.3111 37.8527V40Z" fill="url(#paint35_linear_6643_5213)"/>
<path d="M28.5403 40H36.6186C37.535 40 38.2779 39.2572 38.2779 38.3408V37.5656C38.2779 34.8766 36.098 32.6968 33.4091 32.6968C30.7201 32.6968 28.5403 34.8766 28.5403 37.5656V40Z" fill="url(#paint36_linear_6643_5213)"/>
<path d="M26.2971 40H30.7461C31.2508 40 31.6599 39.5909 31.6599 39.0862V38.6593C31.6599 37.1784 30.4595 35.9779 28.9785 35.9779C27.4976 35.9779 26.2971 37.1784 26.2971 38.6593V40Z" fill="url(#paint37_linear_6643_5213)"/>
</g>
<defs>
<linearGradient id="paint0_linear_6643_5213" x1="-4.05208" y1="11.782" x2="11.3205" y2="21.0369" gradientUnits="userSpaceOnUse">
<stop stop-color="#EFDCFB"/>
<stop offset="0.443" stop-color="#C1AEC7"/>
<stop offset="1" stop-color="#8A7889"/>
</linearGradient>
<linearGradient id="paint1_linear_6643_5213" x1="6.62683" y1="3.07348" x2="8.30753" y2="4.75427" gradientUnits="userSpaceOnUse">
<stop stop-color="#F8F6FB"/>
<stop offset="1" stop-color="#EFDCFB"/>
</linearGradient>
<linearGradient id="paint2_linear_6643_5213" x1="12.3907" y1="3.07348" x2="14.0715" y2="4.75427" gradientUnits="userSpaceOnUse">
<stop stop-color="#F8F6FB"/>
<stop offset="1" stop-color="#EFDCFB"/>
</linearGradient>
<linearGradient id="paint3_linear_6643_5213" x1="6.62683" y1="9.34948" x2="8.30753" y2="11.0303" gradientUnits="userSpaceOnUse">
<stop stop-color="#F8F6FB"/>
<stop offset="1" stop-color="#EFDCFB"/>
</linearGradient>
<linearGradient id="paint4_linear_6643_5213" x1="12.3907" y1="9.34948" x2="14.0715" y2="11.0303" gradientUnits="userSpaceOnUse">
<stop stop-color="#F8F6FB"/>
<stop offset="1" stop-color="#EFDCFB"/>
</linearGradient>
<linearGradient id="paint5_linear_6643_5213" x1="6.62683" y1="15.6255" x2="8.30753" y2="17.3063" gradientUnits="userSpaceOnUse">
<stop stop-color="#F8F6FB"/>
<stop offset="1" stop-color="#EFDCFB"/>
</linearGradient>
<linearGradient id="paint6_linear_6643_5213" x1="12.3907" y1="15.6255" x2="14.0715" y2="17.3063" gradientUnits="userSpaceOnUse">
<stop stop-color="#F8F6FB"/>
<stop offset="1" stop-color="#EFDCFB"/>
</linearGradient>
<linearGradient id="paint7_linear_6643_5213" x1="6.62683" y1="21.9015" x2="8.30753" y2="23.5823" gradientUnits="userSpaceOnUse">
<stop stop-color="#F8F6FB"/>
<stop offset="1" stop-color="#EFDCFB"/>
</linearGradient>
<linearGradient id="paint8_linear_6643_5213" x1="12.3907" y1="21.9015" x2="14.0715" y2="23.5823" gradientUnits="userSpaceOnUse">
<stop stop-color="#F8F6FB"/>
<stop offset="1" stop-color="#EFDCFB"/>
</linearGradient>
<linearGradient id="paint9_linear_6643_5213" x1="6.62683" y1="28.1775" x2="8.30753" y2="29.8583" gradientUnits="userSpaceOnUse">
<stop stop-color="#F8F6FB"/>
<stop offset="1" stop-color="#EFDCFB"/>
</linearGradient>
<linearGradient id="paint10_linear_6643_5213" x1="12.3907" y1="28.1775" x2="14.0715" y2="29.8583" gradientUnits="userSpaceOnUse">
<stop stop-color="#F8F6FB"/>
<stop offset="1" stop-color="#EFDCFB"/>
</linearGradient>
<linearGradient id="paint11_linear_6643_5213" x1="31.5618" y1="16.8357" x2="31.5618" y2="26.2123" gradientUnits="userSpaceOnUse">
<stop stop-color="#8A7889"/>
<stop offset="1" stop-color="#6E566E"/>
</linearGradient>
<linearGradient id="paint12_linear_6643_5213" x1="10.6427" y1="9.03566" x2="33.5446" y2="43.3886" gradientUnits="userSpaceOnUse">
<stop stop-color="#EFDCFB"/>
<stop offset="0.443" stop-color="#C1AEC7"/>
<stop offset="1" stop-color="#8A7889"/>
</linearGradient>
<linearGradient id="paint13_linear_6643_5213" x1="20" y1="13.072" x2="20" y2="-2.98724" gradientUnits="userSpaceOnUse">
<stop stop-color="#6E566E" stop-opacity="0"/>
<stop offset="0.294" stop-color="#674D66" stop-opacity="0.294"/>
<stop offset="1" stop-color="#593B56"/>
</linearGradient>
<linearGradient id="paint14_linear_6643_5213" x1="19.9998" y1="5.49018" x2="19.9998" y2="8.549" gradientUnits="userSpaceOnUse">
<stop stop-color="#8A7889"/>
<stop offset="1" stop-color="#6E566E"/>
</linearGradient>
<linearGradient id="paint15_linear_6643_5213" x1="16.5302" y1="15.3861" x2="7.50504" y2="6.36092" gradientUnits="userSpaceOnUse">
<stop stop-color="#6E566E" stop-opacity="0"/>
<stop offset="0.294" stop-color="#674D66" stop-opacity="0.294"/>
<stop offset="1" stop-color="#593B56"/>
</linearGradient>
<linearGradient id="paint16_linear_6643_5213" x1="10.0583" y1="8.94877" x2="14.507" y2="13.3975" gradientUnits="userSpaceOnUse">
<stop stop-color="#18CEFB"/>
<stop offset="0.379" stop-color="#1ACCFB"/>
<stop offset="0.6" stop-color="#22C3FA"/>
<stop offset="0.78" stop-color="#2FB5F9"/>
<stop offset="0.936" stop-color="#41A1F7"/>
<stop offset="1" stop-color="#4A97F6"/>
</linearGradient>
<linearGradient id="paint17_linear_6643_5213" x1="22.9839" y1="15.5192" x2="14.9288" y2="7.46413" gradientUnits="userSpaceOnUse">
<stop stop-color="#6E566E" stop-opacity="0"/>
<stop offset="0.294" stop-color="#674D66" stop-opacity="0.294"/>
<stop offset="1" stop-color="#593B56"/>
</linearGradient>
<linearGradient id="paint18_linear_6643_5213" x1="16.9442" y1="9.5139" x2="20.3784" y2="12.948" gradientUnits="userSpaceOnUse">
<stop stop-color="#18CEFB"/>
<stop offset="0.379" stop-color="#1ACCFB"/>
<stop offset="0.6" stop-color="#22C3FA"/>
<stop offset="0.78" stop-color="#2FB5F9"/>
<stop offset="0.936" stop-color="#41A1F7"/>
<stop offset="1" stop-color="#4A97F6"/>
</linearGradient>
<linearGradient id="paint19_linear_6643_5213" x1="28.9175" y1="15.1323" x2="19.004" y2="5.2188" gradientUnits="userSpaceOnUse">
<stop stop-color="#6E566E" stop-opacity="0"/>
<stop offset="0.294" stop-color="#674D66" stop-opacity="0.294"/>
<stop offset="1" stop-color="#593B56"/>
</linearGradient>
<linearGradient id="paint20_linear_6643_5213" x1="23.222" y1="9.47123" x2="26.1044" y2="12.3537" gradientUnits="userSpaceOnUse">
<stop stop-color="#18CEFB"/>
<stop offset="0.379" stop-color="#1ACCFB"/>
<stop offset="0.6" stop-color="#22C3FA"/>
<stop offset="0.78" stop-color="#2FB5F9"/>
<stop offset="0.936" stop-color="#41A1F7"/>
<stop offset="1" stop-color="#4A97F6"/>
</linearGradient>
<linearGradient id="paint21_linear_6643_5213" x1="16.5302" y1="22.6362" x2="7.50504" y2="13.611" gradientUnits="userSpaceOnUse">
<stop stop-color="#6E566E" stop-opacity="0"/>
<stop offset="0.294" stop-color="#674D66" stop-opacity="0.294"/>
<stop offset="1" stop-color="#593B56"/>
</linearGradient>
<linearGradient id="paint22_linear_6643_5213" x1="10.0583" y1="16.1988" x2="14.507" y2="20.6475" gradientUnits="userSpaceOnUse">
<stop stop-color="#18CEFB"/>
<stop offset="0.379" stop-color="#1ACCFB"/>
<stop offset="0.6" stop-color="#22C3FA"/>
<stop offset="0.78" stop-color="#2FB5F9"/>
<stop offset="0.936" stop-color="#41A1F7"/>
<stop offset="1" stop-color="#4A97F6"/>
</linearGradient>
<linearGradient id="paint23_linear_6643_5213" x1="22.9839" y1="22.7692" x2="14.9288" y2="14.7142" gradientUnits="userSpaceOnUse">
<stop stop-color="#6E566E" stop-opacity="0"/>
<stop offset="0.294" stop-color="#674D66" stop-opacity="0.294"/>
<stop offset="1" stop-color="#593B56"/>
</linearGradient>
<linearGradient id="paint24_linear_6643_5213" x1="16.9442" y1="16.764" x2="20.3784" y2="20.1981" gradientUnits="userSpaceOnUse">
<stop stop-color="#18CEFB"/>
<stop offset="0.379" stop-color="#1ACCFB"/>
<stop offset="0.6" stop-color="#22C3FA"/>
<stop offset="0.78" stop-color="#2FB5F9"/>
<stop offset="0.936" stop-color="#41A1F7"/>
<stop offset="1" stop-color="#4A97F6"/>
</linearGradient>
<linearGradient id="paint25_linear_6643_5213" x1="28.9175" y1="22.3824" x2="19.004" y2="12.4688" gradientUnits="userSpaceOnUse">
<stop stop-color="#6E566E" stop-opacity="0"/>
<stop offset="0.294" stop-color="#674D66" stop-opacity="0.294"/>
<stop offset="1" stop-color="#593B56"/>
</linearGradient>
<linearGradient id="paint26_linear_6643_5213" x1="23.222" y1="16.7214" x2="26.1044" y2="19.6038" gradientUnits="userSpaceOnUse">
<stop stop-color="#18CEFB"/>
<stop offset="0.379" stop-color="#1ACCFB"/>
<stop offset="0.6" stop-color="#22C3FA"/>
<stop offset="0.78" stop-color="#2FB5F9"/>
<stop offset="0.936" stop-color="#41A1F7"/>
<stop offset="1" stop-color="#4A97F6"/>
</linearGradient>
<linearGradient id="paint27_linear_6643_5213" x1="16.5302" y1="29.8862" x2="7.50504" y2="20.861" gradientUnits="userSpaceOnUse">
<stop stop-color="#6E566E" stop-opacity="0"/>
<stop offset="0.294" stop-color="#674D66" stop-opacity="0.294"/>
<stop offset="1" stop-color="#593B56"/>
</linearGradient>
<linearGradient id="paint28_linear_6643_5213" x1="10.0583" y1="23.4489" x2="14.507" y2="27.8976" gradientUnits="userSpaceOnUse">
<stop stop-color="#18CEFB"/>
<stop offset="0.379" stop-color="#1ACCFB"/>
<stop offset="0.6" stop-color="#22C3FA"/>
<stop offset="0.78" stop-color="#2FB5F9"/>
<stop offset="0.936" stop-color="#41A1F7"/>
<stop offset="1" stop-color="#4A97F6"/>
</linearGradient>
<linearGradient id="paint29_linear_6643_5213" x1="22.9839" y1="30.0193" x2="14.9288" y2="21.9643" gradientUnits="userSpaceOnUse">
<stop stop-color="#6E566E" stop-opacity="0"/>
<stop offset="0.294" stop-color="#674D66" stop-opacity="0.294"/>
<stop offset="1" stop-color="#593B56"/>
</linearGradient>
<linearGradient id="paint30_linear_6643_5213" x1="16.9442" y1="24.0141" x2="20.3784" y2="27.4483" gradientUnits="userSpaceOnUse">
<stop stop-color="#18CEFB"/>
<stop offset="0.379" stop-color="#1ACCFB"/>
<stop offset="0.6" stop-color="#22C3FA"/>
<stop offset="0.78" stop-color="#2FB5F9"/>
<stop offset="0.936" stop-color="#41A1F7"/>
<stop offset="1" stop-color="#4A97F6"/>
</linearGradient>
<linearGradient id="paint31_linear_6643_5213" x1="28.9175" y1="29.6324" x2="19.004" y2="19.7189" gradientUnits="userSpaceOnUse">
<stop stop-color="#6E566E" stop-opacity="0"/>
<stop offset="0.294" stop-color="#674D66" stop-opacity="0.294"/>
<stop offset="1" stop-color="#593B56"/>
</linearGradient>
<linearGradient id="paint32_linear_6643_5213" x1="23.222" y1="23.9715" x2="26.1044" y2="26.8539" gradientUnits="userSpaceOnUse">
<stop stop-color="#18CEFB"/>
<stop offset="0.379" stop-color="#1ACCFB"/>
<stop offset="0.6" stop-color="#22C3FA"/>
<stop offset="0.78" stop-color="#2FB5F9"/>
<stop offset="0.936" stop-color="#41A1F7"/>
<stop offset="1" stop-color="#4A97F6"/>
</linearGradient>
<linearGradient id="paint33_linear_6643_5213" x1="16.5812" y1="30.9437" x2="23.0837" y2="39.6289" gradientUnits="userSpaceOnUse">
<stop stop-color="#65E0DB"/>
<stop offset="0.812" stop-color="#27D2F5"/>
<stop offset="1" stop-color="#18CEFB"/>
</linearGradient>
<linearGradient id="paint34_linear_6643_5213" x1="21.769" y1="35.3991" x2="15.403" y2="33.2164" gradientUnits="userSpaceOnUse">
<stop stop-color="#4A97F6" stop-opacity="0"/>
<stop offset="1" stop-color="#0469BB"/>
</linearGradient>
<linearGradient id="paint35_linear_6643_5213" x1="4.39314" y1="35.9849" x2="10.7158" y2="42.3075" gradientUnits="userSpaceOnUse">
<stop stop-color="#BADA00"/>
<stop offset="0.219" stop-color="#B6D600"/>
<stop offset="0.45" stop-color="#ACC900"/>
<stop offset="0.687" stop-color="#9AB400"/>
<stop offset="0.927" stop-color="#829700"/>
<stop offset="1" stop-color="#798C00"/>
</linearGradient>
<linearGradient id="paint36_linear_6643_5213" x1="31.8008" y1="34.7663" x2="35.1354" y2="41.9812" gradientUnits="userSpaceOnUse">
<stop stop-color="#BADA00"/>
<stop offset="0.219" stop-color="#B6D600"/>
<stop offset="0.45" stop-color="#ACC900"/>
<stop offset="0.687" stop-color="#9AB400"/>
<stop offset="0.927" stop-color="#829700"/>
<stop offset="1" stop-color="#798C00"/>
</linearGradient>
<linearGradient id="paint37_linear_6643_5213" x1="28.2937" y1="37.5578" x2="29.8701" y2="40.953" gradientUnits="userSpaceOnUse">
<stop stop-color="#BADA00"/>
<stop offset="0.219" stop-color="#B6D600"/>
<stop offset="0.45" stop-color="#ACC900"/>
<stop offset="0.687" stop-color="#9AB400"/>
<stop offset="0.927" stop-color="#829700"/>
<stop offset="1" stop-color="#798C00"/>
</linearGradient>
<clipPath id="clip0_6643_5213">
<rect width="40" height="40" fill="white"/>
</clipPath>
</defs>
</svg>
