<svg width="27" height="27" viewBox="0 0 27 27" fill="none" xmlns="http://www.w3.org/2000/svg">
<g clip-path="url(#clip0_7123_5430)">
<path d="M17.6367 17.2266C22.3937 17.2266 26.25 13.3703 26.25 8.61328C26.25 3.8563 22.3937 0 17.6367 0C12.8797 0 9.02344 3.8563 9.02344 8.61328C9.02344 13.3703 12.8797 17.2266 17.6367 17.2266Z" fill="#FAE25C"/>
<path d="M17.6367 15.5859C21.4876 15.5859 24.6094 12.4642 24.6094 8.61328C24.6094 4.76239 21.4876 1.64062 17.6367 1.64062C13.7858 1.64062 10.6641 4.76239 10.6641 8.61328C10.6641 12.4642 13.7858 15.5859 17.6367 15.5859Z" fill="#FFED83"/>
<path d="M18.0469 7.38281H17.2266C16.9002 7.38281 16.5872 7.25317 16.3565 7.02242C16.1257 6.79166 15.9961 6.47868 15.9961 6.15234C15.9961 5.826 16.1257 5.51303 16.3565 5.28227C16.5872 5.05151 16.9002 4.92188 17.2266 4.92188H20.0977C20.3152 4.92188 20.5239 4.83545 20.6777 4.68161C20.8315 4.52777 20.918 4.31912 20.918 4.10156C20.918 3.884 20.8315 3.67535 20.6777 3.52151C20.5239 3.36768 20.3152 3.28125 20.0977 3.28125H18.457V1.64062H16.8164V3.31406C16.1026 3.42277 15.456 3.79643 15.0054 4.36059C14.5547 4.92475 14.3332 5.63798 14.385 6.35816C14.4367 7.07833 14.7579 7.75257 15.2845 8.24653C15.8111 8.74048 16.5046 9.01788 17.2266 9.02344H18.0469C18.3732 9.02344 18.6862 9.15308 18.9169 9.38383C19.1477 9.61459 19.2773 9.92757 19.2773 10.2539C19.2773 10.5802 19.1477 10.8932 18.9169 11.124C18.6862 11.3547 18.3732 11.4844 18.0469 11.4844H15.1758C14.9582 11.4844 14.7496 11.5708 14.5957 11.7246C14.4419 11.8785 14.3555 12.0871 14.3555 12.3047C14.3555 12.5222 14.4419 12.7309 14.5957 12.8847C14.7496 13.0386 14.9582 13.125 15.1758 13.125H16.8164V14.7656H18.457V13.0922C19.1708 12.9835 19.8175 12.6098 20.2681 12.0457C20.7187 11.4815 20.9402 10.7683 20.8885 10.0481C20.8367 9.32792 20.5156 8.65368 19.9889 8.15972C19.4623 7.66577 18.7689 7.38837 18.0469 7.38281Z" fill="#D7986C"/>
<path d="M6.97266 5.33203H6.5625V4.92188C6.5625 4.81309 6.51929 4.70877 6.44237 4.63185C6.36545 4.55493 6.26112 4.51172 6.15234 4.51172C6.04356 4.51172 5.93924 4.55493 5.86232 4.63185C5.7854 4.70877 5.74219 4.81309 5.74219 4.92188V5.33203H5.33203C5.22325 5.33203 5.11893 5.37524 5.04201 5.45216C4.96509 5.52908 4.92188 5.63341 4.92188 5.74219C4.92188 5.85097 4.96509 5.95529 5.04201 6.03221C5.11893 6.10913 5.22325 6.15234 5.33203 6.15234H5.74219V6.5625C5.74219 6.67128 5.7854 6.77561 5.86232 6.85252C5.93924 6.92944 6.04356 6.97266 6.15234 6.97266C6.26112 6.97266 6.36545 6.92944 6.44237 6.85252C6.51929 6.77561 6.5625 6.67128 6.5625 6.5625V6.15234H6.97266C7.08144 6.15234 7.18576 6.10913 7.26268 6.03221C7.3396 5.95529 7.38281 5.85097 7.38281 5.74219C7.38281 5.63341 7.3396 5.52908 7.26268 5.45216C7.18576 5.37524 7.08144 5.33203 6.97266 5.33203ZM22.1484 20.5078H21.7383V20.0977C21.7383 19.9889 21.6951 19.8846 21.6181 19.8076C21.5412 19.7307 21.4369 19.6875 21.3281 19.6875C21.2193 19.6875 21.115 19.7307 21.0381 19.8076C20.9612 19.8846 20.918 19.9889 20.918 20.0977V20.5078H20.5078C20.399 20.5078 20.2947 20.551 20.2178 20.6279C20.1409 20.7049 20.0977 20.8092 20.0977 20.918C20.0977 21.0267 20.1409 21.1311 20.2178 21.208C20.2947 21.2849 20.399 21.3281 20.5078 21.3281H20.918V21.7383C20.918 21.8471 20.9612 21.9514 21.0381 22.0283C21.115 22.1052 21.2193 22.1484 21.3281 22.1484C21.4369 22.1484 21.5412 22.1052 21.6181 22.0283C21.6951 21.9514 21.7383 21.8471 21.7383 21.7383V21.3281H22.1484C22.2572 21.3281 22.3615 21.2849 22.4385 21.208C22.5154 21.1311 22.5586 21.0267 22.5586 20.918C22.5586 20.8092 22.5154 20.7049 22.4385 20.6279C22.3615 20.551 22.2572 20.5078 22.1484 20.5078Z" fill="#FAE25C"/>
<path d="M15.1758 18.8672H14.7656C15.092 18.8672 15.4049 18.9968 15.6357 19.2276C15.8665 19.4583 15.9961 19.7713 15.9961 20.0977C15.9961 20.424 15.8665 20.737 15.6357 20.9677C15.4049 21.1985 15.092 21.3281 14.7656 21.3281H14.3555C14.6818 21.3281 14.9948 21.4578 15.2255 21.6885C15.4563 21.9193 15.5859 22.2323 15.5859 22.5586C15.5859 22.8849 15.4563 23.1979 15.2255 23.4287C14.9948 23.6594 14.6818 23.7891 14.3555 23.7891H13.9453C14.2717 23.7891 14.5846 23.9187 14.8154 24.1495C15.0461 24.3802 15.1758 24.6932 15.1758 25.0195C15.1758 25.3459 15.0461 25.6588 14.8154 25.8896C14.5846 26.1204 14.2717 26.25 13.9453 26.25H6.97266L3.28125 25.4297V18.0469C4.51172 18.0469 6.15234 16.4062 6.15234 16.4062L7.79297 10.6641C7.79297 10.6641 9.84375 10.6641 9.84375 13.125L9.43359 16.4062H15.1758C15.5021 16.4062 15.8151 16.5359 16.0459 16.7666C16.2766 16.9974 16.4062 17.3104 16.4062 17.6367C16.4062 17.9631 16.2766 18.276 16.0459 18.5068C15.8151 18.7375 15.5021 18.8672 15.1758 18.8672Z" fill="#FFD2A6"/>
<path d="M0 17.2266H4.10156V26.25H0V17.2266Z" fill="#7BACE6"/>
</g>
<defs>
<clipPath id="clip0_7123_5430">
<rect width="26.25" height="26.25" fill="white"/>
</clipPath>
</defs>
</svg>
