<svg width="40" height="40" viewBox="0 0 40 40" fill="none" xmlns="http://www.w3.org/2000/svg">
<g clip-path="url(#clip0_6642_5157)">
<path d="M7.891 38.4682C7.77785 38.3924 7.64189 38.3582 7.50633 38.3714C7.37077 38.3847 7.24402 38.4446 7.14771 38.5409L6.69273 38.9959C6.32222 39.3665 6.58465 40 7.10857 40C7.26457 40 7.41414 39.938 7.52441 39.8277L7.97939 39.3728C8.24151 39.1107 8.19884 38.6746 7.891 38.4682Z" fill="url(#paint0_linear_6642_5157)"/>
<path d="M4.55793 32.8115L6.22169 31.1478C6.33201 31.0375 6.39399 30.8878 6.39399 30.7318C6.39399 30.5758 6.33201 30.4262 6.22169 30.3159C6.11137 30.2055 5.96175 30.1436 5.80573 30.1436C5.64972 30.1436 5.50009 30.2055 5.38977 30.3159L3.72601 31.9796C3.61569 32.0899 3.55371 32.2396 3.55371 32.3956C3.55371 32.5516 3.61569 32.7012 3.72601 32.8115C3.83633 32.9219 3.98595 32.9838 4.14197 32.9838C4.29798 32.9838 4.44761 32.9219 4.55793 32.8115Z" fill="url(#paint1_linear_6642_5157)"/>
<path d="M2.46863 36.5646L0.804865 38.2284C0.694545 38.3387 0.632568 38.4883 0.632568 38.6444C0.632568 38.8004 0.694545 38.95 0.804865 39.0603C0.915185 39.1706 1.06481 39.2326 1.22083 39.2326C1.37684 39.2326 1.52647 39.1706 1.63679 39.0603L3.30055 37.3966C3.41087 37.2862 3.47285 37.1366 3.47285 36.9806C3.47285 36.8246 3.41087 36.6749 3.30055 36.5646C3.19023 36.4543 3.04061 36.3923 2.88459 36.3923C2.72857 36.3923 2.57895 36.4543 2.46863 36.5646Z" fill="url(#paint2_linear_6642_5157)"/>
<path d="M7.71751 34.6434L6.84857 35.5123C6.73825 35.6226 6.67627 35.7723 6.67627 35.9283C6.67627 36.0843 6.73825 36.2339 6.84857 36.3442C6.95889 36.4545 7.10851 36.5165 7.26453 36.5165C7.42054 36.5165 7.57017 36.4545 7.68049 36.3442L8.54943 35.4753C8.65975 35.365 8.72173 35.2153 8.72173 35.0593C8.72173 34.9033 8.65975 34.7537 8.54943 34.6434C8.43911 34.533 8.28948 34.4711 8.13347 34.4711C7.97745 34.4711 7.82783 34.533 7.71751 34.6434Z" fill="url(#paint3_linear_6642_5157)"/>
<path d="M1.5173 32.5369C1.62762 32.4266 1.6896 32.277 1.6896 32.121C1.6896 31.965 1.62762 31.8153 1.5173 31.705C1.40698 31.5947 1.25735 31.5327 1.10134 31.5327C0.945323 31.5327 0.795697 31.5947 0.685378 31.705L0.172201 32.2182C0.0626787 32.3287 0.00137704 32.478 0.00171034 32.6336C0.00204363 32.7892 0.0639847 32.9382 0.17398 33.0483C0.283974 33.1583 0.433066 33.2202 0.588629 33.2206C0.744192 33.2209 0.893559 33.1596 1.00404 33.0501L1.5173 32.5369Z" fill="url(#paint4_linear_6642_5157)"/>
<path d="M2.80793 31.2461L8.58715 25.4669C8.69747 25.3565 8.75944 25.2069 8.75944 25.0509C8.75944 24.8949 8.69747 24.7453 8.58715 24.6349C8.47683 24.5246 8.3272 24.4626 8.17119 24.4626C8.01517 24.4626 7.86554 24.5246 7.75522 24.6349L1.97601 30.4142C1.92138 30.4688 1.87805 30.5336 1.84849 30.605C1.81893 30.6764 1.80371 30.7529 1.80371 30.8301C1.80371 30.9074 1.81893 30.9839 1.84849 31.0552C1.87805 31.1266 1.92138 31.1915 1.97601 31.2461C2.03063 31.3007 2.09548 31.344 2.16685 31.3736C2.23822 31.4032 2.31472 31.4184 2.39197 31.4184C2.46922 31.4184 2.54571 31.4032 2.61708 31.3736C2.68846 31.344 2.7533 31.3007 2.80793 31.2461Z" fill="url(#paint5_linear_6642_5157)"/>
<path d="M2.80793 31.2461L8.58715 25.4669C8.69747 25.3565 8.75944 25.2069 8.75944 25.0509C8.75944 24.8949 8.69747 24.7453 8.58715 24.6349C8.47683 24.5246 8.3272 24.4626 8.17119 24.4626C8.01517 24.4626 7.86554 24.5246 7.75522 24.6349L1.97601 30.4142C1.92138 30.4688 1.87805 30.5336 1.84849 30.605C1.81893 30.6764 1.80371 30.7529 1.80371 30.8301C1.80371 30.9074 1.81893 30.9839 1.84849 31.0552C1.87805 31.1266 1.92138 31.1915 1.97601 31.2461C2.03063 31.3007 2.09548 31.344 2.16685 31.3736C2.23822 31.4032 2.31472 31.4184 2.39197 31.4184C2.46922 31.4184 2.54571 31.4032 2.61708 31.3736C2.68846 31.344 2.7533 31.3007 2.80793 31.2461Z" fill="url(#paint6_linear_6642_5157)"/>
<path d="M5.99453 14.2575L7.67641 12.5757C7.90865 12.3434 7.90865 11.967 7.67641 11.7347C7.44418 11.5025 7.06771 11.5025 6.83547 11.7347L5.15367 13.4166C5.09845 13.4718 5.05465 13.5374 5.02476 13.6095C4.99488 13.6816 4.9795 13.759 4.97949 13.837C4.97949 13.9151 4.99487 13.9925 5.02474 14.0646C5.05462 14.1367 5.09842 14.2023 5.15363 14.2575C5.20884 14.3127 5.27439 14.3565 5.34653 14.3864C5.41867 14.4163 5.49599 14.4317 5.57407 14.4317C5.65216 14.4317 5.72948 14.4163 5.80162 14.3864C5.87376 14.3566 5.93931 14.3128 5.99453 14.2575Z" fill="url(#paint7_linear_6642_5157)"/>
<path d="M7.29185 14.6422L5.60997 16.3241C5.37773 16.5563 5.37773 16.9328 5.60997 17.165C5.8422 17.3973 6.21867 17.3973 6.45091 17.165L8.13279 15.4831C8.36503 15.2509 8.36503 14.8744 8.13279 14.6422C7.90056 14.41 7.52401 14.41 7.29185 14.6422Z" fill="url(#paint8_linear_6642_5157)"/>
<path d="M10.6555 12.9602L16.4975 7.11827C16.7297 6.88603 16.7297 6.50956 16.4975 6.27733C16.2652 6.04509 15.8888 6.04509 15.6565 6.27733L9.81456 12.1193C9.58232 12.3515 9.58232 12.728 9.81456 12.9602C10.0468 13.1925 10.4233 13.1925 10.6555 12.9602Z" fill="url(#paint9_linear_6642_5157)"/>
<path d="M10.6555 12.9602L16.4975 7.11827C16.7297 6.88603 16.7297 6.50956 16.4975 6.27733C16.2652 6.04509 15.8888 6.04509 15.6565 6.27733L9.81456 12.1193C9.58232 12.3515 9.58232 12.728 9.81456 12.9602C10.0468 13.1925 10.4233 13.1925 10.6555 12.9602Z" fill="url(#paint10_linear_6642_5157)"/>
<path d="M11.1316 14.1659L10.2533 15.0442C10.021 15.2765 10.021 15.6529 10.2533 15.8852C10.4855 16.1174 10.862 16.1174 11.0942 15.8852L11.9726 15.0068C12.2048 14.7746 12.2048 14.3981 11.9726 14.1659C11.7403 13.9336 11.3639 13.9336 11.1316 14.1659Z" fill="url(#paint11_linear_6642_5157)"/>
<path d="M27.3819 32.2812L25.7001 33.9631C25.4678 34.1954 25.4678 34.5718 25.7001 34.8041C25.9323 35.0363 26.3088 35.0363 26.541 34.8041L28.2229 33.1222C28.4551 32.8899 28.4551 32.5135 28.2229 32.2812C27.9906 32.049 27.6141 32.049 27.3819 32.2812Z" fill="url(#paint12_linear_6642_5157)"/>
<path d="M24.4745 31.8249L22.7926 33.5068C22.5603 33.7391 22.5603 34.1155 22.7926 34.3478C23.0248 34.58 23.4013 34.58 23.6335 34.3478L25.3153 32.6659C25.3706 32.6107 25.4144 32.5451 25.4442 32.473C25.4741 32.4008 25.4895 32.3235 25.4895 32.2454C25.4895 32.1673 25.4741 32.09 25.4442 32.0178C25.4144 31.9457 25.3706 31.8801 25.3153 31.8249C25.2601 31.7697 25.1946 31.7259 25.1224 31.696C25.0503 31.6661 24.973 31.6508 24.8949 31.6508C24.8168 31.6508 24.7395 31.6661 24.6674 31.696C24.5952 31.7259 24.5297 31.7697 24.4745 31.8249Z" fill="url(#paint13_linear_6642_5157)"/>
<path d="M33.6801 23.4602C33.6249 23.405 33.5593 23.3612 33.4872 23.3313C33.415 23.3014 33.3377 23.286 33.2596 23.286C33.1815 23.286 33.1042 23.3014 33.032 23.3313C32.9599 23.3612 32.8944 23.405 32.8391 23.4602L26.9972 29.3022C26.7649 29.5344 26.7649 29.9109 26.9972 30.1431C27.2294 30.3753 27.6059 30.3753 27.8381 30.1431L33.6801 24.3011C33.7353 24.2459 33.7791 24.1804 33.809 24.1082C33.8389 24.0361 33.8543 23.9588 33.8543 23.8807C33.8543 23.8026 33.8389 23.7252 33.809 23.6531C33.7791 23.581 33.7353 23.5154 33.6801 23.4602Z" fill="url(#paint14_linear_6642_5157)"/>
<path d="M33.6801 23.4602C33.6249 23.405 33.5593 23.3612 33.4872 23.3313C33.415 23.3014 33.3377 23.286 33.2596 23.286C33.1815 23.286 33.1042 23.3014 33.032 23.3313C32.9599 23.3612 32.8944 23.405 32.8391 23.4602L26.9972 29.3022C26.7649 29.5344 26.7649 29.9109 26.9972 30.1431C27.2294 30.3753 27.6059 30.3753 27.8381 30.1431L33.6801 24.3011C33.7353 24.2459 33.7791 24.1804 33.809 24.1082C33.8389 24.0361 33.8543 23.9588 33.8543 23.8807C33.8543 23.8026 33.8389 23.7252 33.809 23.6531C33.7791 23.581 33.7353 23.5154 33.6801 23.4602Z" fill="url(#paint15_linear_6642_5157)"/>
<path d="M24.9133 29.7043L25.7917 28.8259C26.0239 28.5937 26.0239 28.2172 25.7917 27.985C25.5594 27.7527 25.1829 27.7527 24.9507 27.985L24.0724 28.8633C23.9608 28.9748 23.8982 29.1261 23.8982 29.2838C23.8982 29.4415 23.9608 29.5927 24.0724 29.7043C24.1839 29.8158 24.3351 29.8784 24.4928 29.8784C24.6505 29.8784 24.8018 29.8158 24.9133 29.7043Z" fill="url(#paint16_linear_6642_5157)"/>
<path d="M27.3216 5.90967L9.90154 1.16873C9.28643 1.00132 8.63801 0.99941 8.02193 1.1632C7.40585 1.32699 6.84398 1.65066 6.39322 2.10143L5.44264 3.05202C4.84813 3.64653 4.92852 4.63226 5.6115 5.12261L10.1728 8.39743L9.35824 9.21202C9.12601 9.44426 9.12601 9.82073 9.35824 10.053C9.59048 10.2852 9.96695 10.2852 10.1992 10.053L11.1518 9.10034L14.0899 11.2097L13.6364 11.6632C13.4232 11.8965 13.4288 12.2583 13.6546 12.4841C13.7098 12.5393 13.7753 12.5831 13.8475 12.613C13.9196 12.6429 13.9969 12.6583 14.075 12.6583C14.1531 12.6583 14.2304 12.6429 14.3026 12.613C14.3747 12.5831 14.4403 12.5393 14.4955 12.4841L15.0677 11.9119L18.7069 14.5246L27.3216 5.90967Z" fill="url(#paint17_linear_6642_5157)"/>
<path d="M11.9014 9.63845L18.7068 14.5245L27.3215 5.90975L18.1312 3.40857L11.9014 9.63845Z" fill="url(#paint18_linear_6642_5157)"/>
<path d="M13.4567 2.13626L9.90154 1.16873C9.28643 1.00132 8.63801 0.99941 8.02193 1.1632C7.40585 1.32699 6.84398 1.65066 6.39322 2.10143L5.44264 3.05202C4.84813 3.64653 4.92852 4.63226 5.6115 5.12261L18.7069 14.5244L22.2759 10.9555L13.4567 2.13626Z" fill="url(#paint19_linear_6642_5157)"/>
<path d="M17.1191 3.13293L11.1519 9.10015L14.0899 11.2096L13.6365 11.663C13.4232 11.8963 13.4288 12.2581 13.6546 12.4839C13.7098 12.5391 13.7754 12.5829 13.8475 12.6128C13.9197 12.6427 13.997 12.6581 14.0751 12.6581C14.1532 12.6581 14.2305 12.6427 14.3026 12.6128C14.3748 12.5829 14.4403 12.5391 14.4955 12.4839L15.0678 11.9117L18.7069 14.5244L27.3216 5.90964L17.1191 3.13293Z" fill="url(#paint20_linear_6642_5157)"/>
<path d="M22.4086 4.57263L15.0774 11.9038L15.0911 11.9286L18.7067 14.5245L27.3215 5.90973L22.4086 4.57263Z" fill="url(#paint21_linear_6642_5157)"/>
<path d="M38.8312 30.0984L34.0903 12.6783L25.4756 21.2931L28.0528 24.8828L27.4736 25.462C27.4184 25.5172 27.3746 25.5828 27.3447 25.6549C27.3148 25.7271 27.2994 25.8044 27.2994 25.8825C27.2994 25.9606 27.3148 26.0379 27.3447 26.1101C27.3746 26.1822 27.4184 26.2478 27.4736 26.303C27.6994 26.5288 28.0612 26.5343 28.2946 26.3211L28.755 25.8607L30.8644 28.7987L29.9048 29.7583C29.6725 29.9906 29.6725 30.3671 29.9048 30.5993C30.137 30.8315 30.5135 30.8315 30.7457 30.5993L31.5673 29.7777L34.8775 34.3885C35.3679 35.0714 36.3536 35.1518 36.9481 34.5573L37.8986 33.6067C38.3494 33.156 38.673 32.5941 38.8368 31.978C39.0005 31.3619 38.9986 30.7135 38.8312 30.0984Z" fill="url(#paint22_linear_6642_5157)"/>
<path d="M30.3615 28.0986L25.4756 21.2931L34.0903 12.6783L36.5915 21.8686L30.3615 28.0986Z" fill="url(#paint23_linear_6642_5157)"/>
<path d="M37.8637 26.5434L38.8312 30.0985C38.9986 30.7136 39.0005 31.362 38.8367 31.9781C38.6729 32.5942 38.3493 33.1561 37.8985 33.6068L36.9479 34.5574C36.3534 35.1519 35.3677 35.0715 34.8773 34.3886L25.4756 21.2932L29.0445 17.7242L37.8637 26.5434Z" fill="url(#paint24_linear_6642_5157)"/>
<path d="M34.8774 34.3886C35.3677 35.0716 36.3535 35.1519 36.9479 34.5575L37.8985 33.6069C38.3492 33.1561 38.6729 32.5943 38.8367 31.9782C39.0005 31.3621 38.9986 30.7137 38.8312 30.0986L35.769 18.8467L28.7549 25.8608L34.8774 34.3886Z" fill="url(#paint25_linear_6642_5157)"/>
<path d="M12.3074 24.5196L4.14174 22.2973C3.85341 22.2188 3.54946 22.2179 3.26066 22.2947C2.97187 22.3715 2.70849 22.5232 2.49719 22.7345L2.05162 23.1801C1.77296 23.4587 1.8106 23.9208 2.13076 24.1507L8.26927 28.5578L12.3074 24.5196Z" fill="url(#paint26_linear_6642_5157)"/>
<path d="M5.07935 26.2675L8.26939 28.5578L12.3076 24.5197L7.99958 23.3473L5.07935 26.2675Z" fill="url(#paint27_linear_6642_5157)"/>
<path d="M5.80825 22.7509L4.14174 22.2973C3.85341 22.2188 3.54946 22.2179 3.26066 22.2947C2.97187 22.3715 2.70849 22.5232 2.49719 22.7345L2.05162 23.1801C1.77296 23.4587 1.8106 23.9208 2.13076 24.1507L8.26927 28.5578L9.94221 26.8849L5.80825 22.7509Z" fill="url(#paint28_linear_6642_5157)"/>
<path d="M17.7027 35.8582L15.4804 27.6925L11.4422 31.7307L12.4935 33.195L9.54095 36.1476C9.48632 36.2022 9.44299 36.267 9.41343 36.3384C9.38387 36.4098 9.36865 36.4863 9.36865 36.5635C9.36865 36.6408 9.38387 36.7173 9.41343 36.7886C9.44299 36.86 9.48632 36.9249 9.54095 36.9795C9.59557 37.0341 9.66042 37.0774 9.73179 37.107C9.80316 37.1366 9.87966 37.1518 9.95691 37.1518C10.0342 37.1518 10.1107 37.1366 10.182 37.107C10.2534 37.0774 10.3182 37.0341 10.3729 36.9795L13.1888 34.1636L15.8493 37.8693C16.0791 38.1894 16.5412 38.2271 16.8199 37.9484L17.2654 37.5029C17.4767 37.2915 17.6285 37.0281 17.7052 36.7393C17.782 36.4505 17.7811 36.1465 17.7027 35.8582Z" fill="url(#paint29_linear_6642_5157)"/>
<path d="M13.7324 34.9207L11.4421 31.7306L15.4803 27.6925L16.6527 32.0004L13.7324 34.9207Z" fill="url(#paint30_linear_6642_5157)"/>
<path d="M17.249 34.1917L17.7026 35.8582C17.7811 36.1465 17.782 36.4505 17.7052 36.7393C17.6285 37.0281 17.4767 37.2915 17.2654 37.5028L16.8199 37.9483C16.5412 38.227 16.0792 38.1893 15.8493 37.8692L11.4421 31.7307L13.1151 30.0577L17.249 34.1917Z" fill="url(#paint31_linear_6642_5157)"/>
<path d="M39.0365 0.963416C36.7596 -1.31353 31.4926 0.261768 24.0889 7.66546C20.4492 11.3051 17.5949 15.0518 15.9037 18.1913C14.5669 20.6729 12.8529 22.9692 10.8273 24.9882L10.7913 25.0242C7.59497 28.2205 6.55818 30.6304 7.05003 31.9833L4.0036 35.0298C3.89328 35.1401 3.8313 35.2897 3.8313 35.4457C3.8313 35.6017 3.89328 35.7514 4.0036 35.8617C4.11392 35.972 4.26354 36.034 4.41956 36.034C4.57557 36.034 4.7252 35.972 4.83552 35.8617L7.82862 32.8686C9.1392 33.5371 11.6257 32.5589 14.9758 29.2088L15.0118 29.1728C17.0308 27.1472 19.3271 25.4331 21.8087 24.0964C24.9482 22.4051 28.6949 19.5508 32.3346 15.9111C39.7382 8.50726 41.3135 3.24036 39.0365 0.963416Z" fill="url(#paint32_linear_6642_5157)"/>
<path d="M9.80493 30.1951L11.6104 32.0006C12.602 31.3735 13.7289 30.4557 14.9759 29.2088L15.0119 29.1728C15.6146 28.5685 16.2434 27.9907 16.8963 27.441L14.7278 25.2725L9.80493 30.1951Z" fill="url(#paint33_linear_6642_5157)"/>
<path d="M14.9758 29.2086L15.0118 29.1726C15.4894 28.6938 15.9834 28.2317 16.4928 27.7869L14.7016 25.9956L7.82861 32.8685C9.13912 33.5369 11.6256 32.5588 14.9758 29.2086Z" fill="url(#paint34_linear_6642_5157)"/>
<path d="M10.6147 29.2506C10.5601 29.1959 10.4953 29.1526 10.4239 29.123C10.3525 29.0935 10.276 29.0782 10.1988 29.0782C10.1215 29.0782 10.045 29.0935 9.97365 29.123C9.90228 29.1526 9.83744 29.1959 9.78281 29.2506L4.0036 35.0298C3.89328 35.1401 3.8313 35.2897 3.8313 35.4457C3.8313 35.6017 3.89328 35.7514 4.0036 35.8617C4.11392 35.972 4.26354 36.034 4.41956 36.034C4.57557 36.034 4.7252 35.972 4.83552 35.8617L10.6147 30.0825C10.6694 30.0279 10.7127 29.963 10.7423 29.8916C10.7718 29.8203 10.787 29.7438 10.787 29.6665C10.787 29.5893 10.7718 29.5128 10.7423 29.4414C10.7127 29.37 10.6694 29.3052 10.6147 29.2506Z" fill="url(#paint35_linear_6642_5157)"/>
<path d="M32.7408 2.29474C31.9445 2.80729 31.0835 3.4287 30.1595 4.16462C29.791 4.45819 29.806 5.02149 30.186 5.30008C31.9132 6.5644 33.436 8.08651 34.7011 9.81317C34.9797 10.193 35.5429 10.2079 35.8364 9.83945C36.5723 8.91537 37.1936 8.05435 37.7061 7.25804C37.868 7.00643 37.8528 6.68008 37.6726 6.44117C36.4995 4.88488 35.1143 3.5004 33.5575 2.328C33.3186 2.14792 32.9924 2.13286 32.7408 2.29474Z" fill="url(#paint36_linear_6642_5157)"/>
<path d="M32.7408 2.29474C31.9445 2.80729 31.0835 3.4287 30.1595 4.16462C29.791 4.45819 29.806 5.02149 30.186 5.30008C31.9132 6.5644 33.436 8.08651 34.7011 9.81317C34.9797 10.193 35.5429 10.2079 35.8364 9.83945C36.5723 8.91537 37.1936 8.05435 37.7061 7.25804C37.868 7.00643 37.8528 6.68008 37.6726 6.44117C36.4995 4.88488 35.1143 3.5004 33.5575 2.328C33.3186 2.14792 32.9924 2.13286 32.7408 2.29474Z" fill="url(#paint37_linear_6642_5157)"/>
<path d="M32.7408 2.29474C31.9445 2.80729 31.0835 3.4287 30.1595 4.16462C29.791 4.45819 29.806 5.02149 30.186 5.30008C31.9132 6.5644 33.436 8.08651 34.7011 9.81317C34.9797 10.193 35.5429 10.2079 35.8364 9.83945C36.5723 8.91537 37.1936 8.05435 37.7061 7.25804C37.868 7.00643 37.8528 6.68008 37.6726 6.44117C36.4995 4.88488 35.1143 3.5004 33.5575 2.328C33.3186 2.14792 32.9924 2.13286 32.7408 2.29474Z" fill="url(#paint38_linear_6642_5157)"/>
<path d="M9.80484 30.1952C9.44233 29.8327 9.44233 29.245 9.80484 28.8825L13.4148 25.2725C13.7773 24.91 14.365 24.91 14.7275 25.2725C15.09 25.635 15.09 26.2227 14.7275 26.5852L11.1175 30.1952C10.755 30.5576 10.1674 30.5576 9.80484 30.1952Z" fill="url(#paint39_linear_6642_5157)"/>
<path d="M31.5865 28.0766L29.9046 29.7585C29.6724 29.9908 29.6724 30.3672 29.9046 30.5995C30.1369 30.8317 30.5134 30.8317 30.7456 30.5995L32.4275 28.9176C32.6597 28.6853 32.6597 28.3089 32.4275 28.0766C32.1952 27.8444 31.8187 27.8444 31.5865 28.0766Z" fill="url(#paint40_linear_6642_5157)"/>
<path d="M28.2944 26.3211L30.2064 24.4092C30.4386 24.1769 30.4386 23.8005 30.2064 23.5682C29.9741 23.336 29.5977 23.336 29.3654 23.5682L28.0537 24.88L28.0546 24.8809L27.4735 25.462C27.4183 25.5172 27.3745 25.5828 27.3446 25.6549C27.3147 25.7271 27.2993 25.8044 27.2993 25.8825C27.2993 25.9606 27.3147 26.0379 27.3446 26.1101C27.3745 26.1822 27.4183 26.2478 27.4735 26.303C27.6993 26.5288 28.0611 26.5343 28.2944 26.3211Z" fill="url(#paint41_linear_6642_5157)"/>
<path d="M13.3851 32.3034L9.54095 36.1476C9.43063 36.2579 9.36865 36.4075 9.36865 36.5635C9.36865 36.7195 9.43063 36.8692 9.54095 36.9795C9.65127 37.0898 9.80089 37.1518 9.95691 37.1518C10.1129 37.1518 10.2626 37.0898 10.3729 36.9795L14.217 33.1353C14.3273 33.025 14.3893 32.8754 14.3893 32.7194C14.3893 32.5633 14.3273 32.4137 14.217 32.3034C14.1067 32.1931 13.9571 32.1311 13.8011 32.1311C13.6451 32.1311 13.4954 32.1931 13.3851 32.3034Z" fill="url(#paint42_linear_6642_5157)"/>
<path d="M13.0402 29.3206L11.3764 30.9844C11.2661 31.0947 11.2041 31.2443 11.2041 31.4003C11.2041 31.5564 11.2661 31.706 11.3764 31.8163C11.4867 31.9266 11.6363 31.9886 11.7924 31.9886C11.9484 31.9886 12.098 31.9266 12.2083 31.8163L13.8721 30.1525C13.9824 30.0422 14.0444 29.8926 14.0444 29.7366C14.0444 29.5806 13.9824 29.4309 13.8721 29.3206C13.7618 29.2103 13.6121 29.1483 13.4561 29.1483C13.3001 29.1483 13.1505 29.2103 13.0402 29.3206Z" fill="url(#paint43_linear_6642_5157)"/>
<path d="M8.51013 28.0274C8.56475 28.082 8.6296 28.1254 8.70097 28.1549C8.77235 28.1845 8.84884 28.1997 8.92609 28.1997C9.00334 28.1997 9.07984 28.1845 9.15121 28.1549C9.22258 28.1254 9.28743 28.082 9.34205 28.0274L10.9886 26.3808C11.099 26.2705 11.1609 26.1209 11.1609 25.9648C11.1609 25.8088 11.099 25.6592 10.9886 25.5489C10.8783 25.4386 10.7287 25.3766 10.5727 25.3766C10.4167 25.3766 10.267 25.4386 10.1567 25.5489L8.51013 27.1955C8.39984 27.3058 8.33789 27.4554 8.33789 27.6114C8.33789 27.7674 8.39984 27.9171 8.51013 28.0274Z" fill="url(#paint44_linear_6642_5157)"/>
<path d="M12.595 28.1021L14.2588 26.4383C14.3691 26.328 14.4311 26.1784 14.4311 26.0223C14.4311 25.8663 14.3691 25.7167 14.2588 25.6064C14.2042 25.5518 14.1393 25.5084 14.068 25.4789C13.9966 25.4493 13.9201 25.4341 13.8428 25.4341C13.6868 25.4341 13.5372 25.4961 13.4269 25.6064L11.7631 27.2701C11.6528 27.3805 11.5908 27.5301 11.5908 27.6861C11.5908 27.8421 11.6528 27.9917 11.7631 28.1021C11.8734 28.2124 12.0231 28.2744 12.1791 28.2744C12.3351 28.2744 12.4847 28.2124 12.595 28.1021Z" fill="url(#paint45_linear_6642_5157)"/>
<path d="M5.68677 26.7037L6.65524 27.399L8.58724 25.467C8.69756 25.3567 8.75953 25.207 8.75953 25.051C8.75953 24.895 8.69756 24.7454 8.58724 24.6351C8.47692 24.5247 8.32729 24.4628 8.17128 24.4628C8.01526 24.4628 7.86564 24.5247 7.75532 24.6351L5.68677 26.7037Z" fill="url(#paint46_linear_6642_5157)"/>
<path d="M16.8199 37.9483L17.2654 37.5027C17.4767 37.2914 17.6284 37.028 17.7052 36.7393C17.782 36.4505 17.7811 36.1465 17.7026 35.8582L16.3744 30.9778L13.1887 34.1634L15.8492 37.8692C16.0792 38.1893 16.5412 38.227 16.8199 37.9483Z" fill="url(#paint47_linear_6642_5157)"/>
<path d="M10.1992 10.053L11.8811 8.37107C12.1133 8.13884 12.1133 7.76237 11.8811 7.53013C11.6488 7.2979 11.2724 7.2979 11.0401 7.53013L9.35826 9.21202C9.12602 9.44425 9.12602 9.82072 9.35826 10.053C9.59049 10.2852 9.96696 10.2852 10.1992 10.053Z" fill="url(#paint48_linear_6642_5157)"/>
<path d="M15.5483 9.7512L13.6364 11.6631C13.4232 11.8965 13.4287 12.2583 13.6545 12.4841C13.7098 12.5393 13.7753 12.5831 13.8474 12.613C13.9196 12.6429 13.9969 12.6583 14.075 12.6583C14.1531 12.6583 14.2304 12.6429 14.3026 12.613C14.3747 12.5831 14.4403 12.5393 14.4955 12.4841L15.0766 11.903L15.0775 11.9039L16.3893 10.5921C16.6215 10.3599 16.6215 9.98344 16.3893 9.7512C16.157 9.51897 15.7806 9.51897 15.5483 9.7512Z" fill="url(#paint49_linear_6642_5157)"/>
<path d="M16.4972 6.27746C16.442 6.22223 16.3764 6.17843 16.3043 6.14854C16.2321 6.11865 16.1548 6.10327 16.0767 6.10327C15.9986 6.10327 15.9213 6.11865 15.8492 6.14854C15.777 6.17843 15.7115 6.22223 15.6563 6.27746L12.1306 9.8031L13.1096 10.506L16.4972 7.1184C16.5524 7.06318 16.5962 6.99763 16.6261 6.92549C16.656 6.85334 16.6714 6.77602 16.6714 6.69793C16.6714 6.61984 16.656 6.54251 16.6261 6.47037C16.5962 6.39822 16.5524 6.33267 16.4972 6.27746Z" fill="url(#paint50_linear_6642_5157)"/>
<path d="M36.9479 34.5573L37.8985 33.6067C38.3493 33.156 38.6729 32.5941 38.8367 31.978C39.0005 31.362 38.9986 30.7135 38.8312 30.0984L37.2086 24.1362L31.5671 29.7777L34.8774 34.3885C35.3677 35.0714 36.3534 35.1518 36.9479 34.5573Z" fill="url(#paint51_linear_6642_5157)"/>
<path d="M32.8391 23.4602L29.4585 26.8408L30.1614 27.8198L33.6801 24.3011C33.7917 24.1895 33.8543 24.0383 33.8543 23.8806C33.8543 23.7229 33.7916 23.5716 33.6801 23.4601C33.5685 23.3486 33.4173 23.286 33.2596 23.286C33.1019 23.286 32.9506 23.3487 32.8391 23.4602Z" fill="url(#paint52_linear_6642_5157)"/>
</g>
<defs>
<linearGradient id="paint0_linear_6642_5157" x1="-0.657549" y1="32.8336" x2="9.01562" y2="40.5199" gradientUnits="userSpaceOnUse">
<stop stop-color="#DEECF1"/>
<stop offset="1" stop-color="#D9B1EE"/>
</linearGradient>
<linearGradient id="paint1_linear_6642_5157" x1="2.14044" y1="29.3122" x2="11.8136" y2="36.9985" gradientUnits="userSpaceOnUse">
<stop stop-color="#DEECF1"/>
<stop offset="1" stop-color="#D9B1EE"/>
</linearGradient>
<linearGradient id="paint2_linear_6642_5157" x1="-2.03372" y1="34.5654" x2="7.63953" y2="42.2517" gradientUnits="userSpaceOnUse">
<stop stop-color="#DEECF1"/>
<stop offset="1" stop-color="#D9B1EE"/>
</linearGradient>
<linearGradient id="paint3_linear_6642_5157" x1="1.28088" y1="30.394" x2="10.9541" y2="38.0803" gradientUnits="userSpaceOnUse">
<stop stop-color="#DEECF1"/>
<stop offset="1" stop-color="#D9B1EE"/>
</linearGradient>
<linearGradient id="paint4_linear_6642_5157" x1="0.146005" y1="31.8223" x2="9.81919" y2="39.5085" gradientUnits="userSpaceOnUse">
<stop stop-color="#DEECF1"/>
<stop offset="1" stop-color="#D9B1EE"/>
</linearGradient>
<linearGradient id="paint5_linear_6642_5157" x1="4.02416" y1="26.9415" x2="13.6974" y2="34.6277" gradientUnits="userSpaceOnUse">
<stop stop-color="#DEECF1"/>
<stop offset="1" stop-color="#D9B1EE"/>
</linearGradient>
<linearGradient id="paint6_linear_6642_5157" x1="4.37577" y1="28.8464" x2="6.63075" y2="26.5914" gradientUnits="userSpaceOnUse">
<stop stop-color="#8379C1" stop-opacity="0"/>
<stop offset="0.283" stop-color="#8374BE" stop-opacity="0.283"/>
<stop offset="0.586" stop-color="#8268B5" stop-opacity="0.586"/>
<stop offset="0.898" stop-color="#8152A6" stop-opacity="0.898"/>
<stop offset="1" stop-color="#814AA0"/>
</linearGradient>
<linearGradient id="paint7_linear_6642_5157" x1="3.21924" y1="9.80045" x2="12.3066" y2="18.8878" gradientUnits="userSpaceOnUse">
<stop stop-color="#DEECF1"/>
<stop offset="1" stop-color="#D9B1EE"/>
</linearGradient>
<linearGradient id="paint8_linear_6642_5157" x1="1.99373" y1="11.026" x2="11.0812" y2="20.1133" gradientUnits="userSpaceOnUse">
<stop stop-color="#DEECF1"/>
<stop offset="1" stop-color="#D9B1EE"/>
</linearGradient>
<linearGradient id="paint9_linear_6642_5157" x1="8.2784" y1="4.74125" x2="17.3658" y2="13.8286" gradientUnits="userSpaceOnUse">
<stop stop-color="#DEECF1"/>
<stop offset="1" stop-color="#D9B1EE"/>
</linearGradient>
<linearGradient id="paint10_linear_6642_5157" x1="11.3091" y1="11.4658" x2="12.8251" y2="9.94972" gradientUnits="userSpaceOnUse">
<stop stop-color="#8379C1" stop-opacity="0"/>
<stop offset="0.283" stop-color="#8374BE" stop-opacity="0.283"/>
<stop offset="0.586" stop-color="#8268B5" stop-opacity="0.586"/>
<stop offset="0.898" stop-color="#8152A6" stop-opacity="0.898"/>
<stop offset="1" stop-color="#814AA0"/>
</linearGradient>
<linearGradient id="paint11_linear_6642_5157" x1="4.55344" y1="8.46603" x2="13.6409" y2="17.5534" gradientUnits="userSpaceOnUse">
<stop stop-color="#DEECF1"/>
<stop offset="1" stop-color="#D9B1EE"/>
</linearGradient>
<linearGradient id="paint12_linear_6642_5157" x1="19.8075" y1="26.3887" x2="29.6077" y2="36.1888" gradientUnits="userSpaceOnUse">
<stop stop-color="#DEECF1"/>
<stop offset="1" stop-color="#D9B1EE"/>
</linearGradient>
<linearGradient id="paint13_linear_6642_5157" x1="18.5819" y1="27.6142" x2="28.3821" y2="37.4143" gradientUnits="userSpaceOnUse">
<stop stop-color="#DEECF1"/>
<stop offset="1" stop-color="#D9B1EE"/>
</linearGradient>
<linearGradient id="paint14_linear_6642_5157" x1="24.8666" y1="21.3295" x2="34.6667" y2="31.1297" gradientUnits="userSpaceOnUse">
<stop stop-color="#DEECF1"/>
<stop offset="1" stop-color="#D9B1EE"/>
</linearGradient>
<linearGradient id="paint15_linear_6642_5157" x1="28.3045" y1="27.964" x2="29.9515" y2="27.0229" gradientUnits="userSpaceOnUse">
<stop stop-color="#8379C1" stop-opacity="0"/>
<stop offset="0.283" stop-color="#8374BE" stop-opacity="0.283"/>
<stop offset="0.586" stop-color="#8268B5" stop-opacity="0.586"/>
<stop offset="0.898" stop-color="#8152A6" stop-opacity="0.898"/>
<stop offset="1" stop-color="#814AA0"/>
</linearGradient>
<linearGradient id="paint16_linear_6642_5157" x1="21.1418" y1="25.0543" x2="30.9419" y2="34.8545" gradientUnits="userSpaceOnUse">
<stop stop-color="#DEECF1"/>
<stop offset="1" stop-color="#D9B1EE"/>
</linearGradient>
<linearGradient id="paint17_linear_6642_5157" x1="15.7388" y1="2.71987" x2="17.8957" y2="13.9356" gradientUnits="userSpaceOnUse">
<stop stop-color="#DEECF1"/>
<stop offset="1" stop-color="#8EBAC5"/>
</linearGradient>
<linearGradient id="paint18_linear_6642_5157" x1="20.2163" y1="8.37508" x2="23.0219" y2="11.1807" gradientUnits="userSpaceOnUse">
<stop stop-color="#678D98" stop-opacity="0"/>
<stop offset="0.227" stop-color="#638892" stop-opacity="0.227"/>
<stop offset="0.522" stop-color="#597B82" stop-opacity="0.522"/>
<stop offset="0.853" stop-color="#476567" stop-opacity="0.853"/>
<stop offset="1" stop-color="#3E5959"/>
</linearGradient>
<linearGradient id="paint19_linear_6642_5157" x1="13.3391" y1="7.73861" x2="11.7392" y2="10.0769" gradientUnits="userSpaceOnUse">
<stop stop-color="#678D98" stop-opacity="0"/>
<stop offset="0.227" stop-color="#638892" stop-opacity="0.227"/>
<stop offset="0.522" stop-color="#597B82" stop-opacity="0.522"/>
<stop offset="0.853" stop-color="#476567" stop-opacity="0.853"/>
<stop offset="1" stop-color="#3E5959"/>
</linearGradient>
<linearGradient id="paint20_linear_6642_5157" x1="14.2745" y1="8.8287" x2="9.97837" y2="8.8287" gradientUnits="userSpaceOnUse">
<stop stop-color="#678D98" stop-opacity="0"/>
<stop offset="0.227" stop-color="#638892" stop-opacity="0.227"/>
<stop offset="0.522" stop-color="#597B82" stop-opacity="0.522"/>
<stop offset="0.853" stop-color="#476567" stop-opacity="0.853"/>
<stop offset="1" stop-color="#3E5959"/>
</linearGradient>
<linearGradient id="paint21_linear_6642_5157" x1="17.6077" y1="9.54855" x2="14.7426" y2="9.54855" gradientUnits="userSpaceOnUse">
<stop stop-color="#678D98" stop-opacity="0"/>
<stop offset="0.227" stop-color="#638892" stop-opacity="0.227"/>
<stop offset="0.522" stop-color="#597B82" stop-opacity="0.522"/>
<stop offset="0.853" stop-color="#476567" stop-opacity="0.853"/>
<stop offset="1" stop-color="#3E5959"/>
</linearGradient>
<linearGradient id="paint22_linear_6642_5157" x1="30.4527" y1="19.2182" x2="35.8522" y2="37.2165" gradientUnits="userSpaceOnUse">
<stop stop-color="#DEECF1"/>
<stop offset="1" stop-color="#8EBAC5"/>
</linearGradient>
<linearGradient id="paint23_linear_6642_5157" x1="31.6293" y1="19.7876" x2="28.8237" y2="16.9821" gradientUnits="userSpaceOnUse">
<stop stop-color="#678D98" stop-opacity="0"/>
<stop offset="0.227" stop-color="#638892" stop-opacity="0.227"/>
<stop offset="0.522" stop-color="#597B82" stop-opacity="0.522"/>
<stop offset="0.853" stop-color="#476567" stop-opacity="0.853"/>
<stop offset="1" stop-color="#3E5959"/>
</linearGradient>
<linearGradient id="paint24_linear_6642_5157" x1="32.2657" y1="26.6651" x2="29.9274" y2="28.265" gradientUnits="userSpaceOnUse">
<stop stop-color="#678D98" stop-opacity="0"/>
<stop offset="0.227" stop-color="#638892" stop-opacity="0.227"/>
<stop offset="0.522" stop-color="#597B82" stop-opacity="0.522"/>
<stop offset="0.853" stop-color="#476567" stop-opacity="0.853"/>
<stop offset="1" stop-color="#3E5959"/>
</linearGradient>
<linearGradient id="paint25_linear_6642_5157" x1="31.451" y1="26.9017" x2="26.5451" y2="26.9017" gradientUnits="userSpaceOnUse">
<stop stop-color="#678D98" stop-opacity="0"/>
<stop offset="0.227" stop-color="#638892" stop-opacity="0.227"/>
<stop offset="0.522" stop-color="#597B82" stop-opacity="0.522"/>
<stop offset="0.853" stop-color="#476567" stop-opacity="0.853"/>
<stop offset="1" stop-color="#3E5959"/>
</linearGradient>
<linearGradient id="paint26_linear_6642_5157" x1="7.42349" y1="23.3635" x2="5.20245" y2="27.4882" gradientUnits="userSpaceOnUse">
<stop stop-color="#DEECF1"/>
<stop offset="1" stop-color="#8EBAC5"/>
</linearGradient>
<linearGradient id="paint27_linear_6642_5157" x1="8.97688" y1="25.6731" x2="10.292" y2="26.9882" gradientUnits="userSpaceOnUse">
<stop stop-color="#678D98" stop-opacity="0"/>
<stop offset="0.227" stop-color="#638892" stop-opacity="0.227"/>
<stop offset="0.522" stop-color="#597B82" stop-opacity="0.522"/>
<stop offset="0.853" stop-color="#476567" stop-opacity="0.853"/>
<stop offset="1" stop-color="#3E5959"/>
</linearGradient>
<linearGradient id="paint28_linear_6642_5157" x1="5.75302" y1="25.3748" x2="5.00304" y2="26.4709" gradientUnits="userSpaceOnUse">
<stop stop-color="#678D98" stop-opacity="0"/>
<stop offset="0.227" stop-color="#638892" stop-opacity="0.227"/>
<stop offset="0.522" stop-color="#597B82" stop-opacity="0.522"/>
<stop offset="0.853" stop-color="#476567" stop-opacity="0.853"/>
<stop offset="1" stop-color="#3E5959"/>
</linearGradient>
<linearGradient id="paint29_linear_6642_5157" x1="12.1471" y1="31.2465" x2="14.6781" y2="39.6832" gradientUnits="userSpaceOnUse">
<stop stop-color="#DEECF1"/>
<stop offset="1" stop-color="#8EBAC5"/>
</linearGradient>
<linearGradient id="paint30_linear_6642_5157" x1="14.3312" y1="31.0272" x2="13.0161" y2="29.7121" gradientUnits="userSpaceOnUse">
<stop stop-color="#678D98" stop-opacity="0"/>
<stop offset="0.227" stop-color="#638892" stop-opacity="0.227"/>
<stop offset="0.522" stop-color="#597B82" stop-opacity="0.522"/>
<stop offset="0.853" stop-color="#476567" stop-opacity="0.853"/>
<stop offset="1" stop-color="#3E5959"/>
</linearGradient>
<linearGradient id="paint31_linear_6642_5157" x1="14.6295" y1="34.251" x2="13.5334" y2="35.001" gradientUnits="userSpaceOnUse">
<stop stop-color="#678D98" stop-opacity="0"/>
<stop offset="0.227" stop-color="#638892" stop-opacity="0.227"/>
<stop offset="0.522" stop-color="#597B82" stop-opacity="0.522"/>
<stop offset="0.853" stop-color="#476567" stop-opacity="0.853"/>
<stop offset="1" stop-color="#3E5959"/>
</linearGradient>
<linearGradient id="paint32_linear_6642_5157" x1="18.7498" y1="15.6423" x2="23.3832" y2="20.2757" gradientUnits="userSpaceOnUse">
<stop stop-color="#DEECF1"/>
<stop offset="1" stop-color="#8EBAC5"/>
</linearGradient>
<linearGradient id="paint33_linear_6642_5157" x1="14.5016" y1="29.969" x2="11.7504" y2="27.2179" gradientUnits="userSpaceOnUse">
<stop stop-color="#678D98" stop-opacity="0"/>
<stop offset="0.227" stop-color="#638892" stop-opacity="0.227"/>
<stop offset="0.522" stop-color="#597B82" stop-opacity="0.522"/>
<stop offset="0.853" stop-color="#476567" stop-opacity="0.853"/>
<stop offset="1" stop-color="#3E5959"/>
</linearGradient>
<linearGradient id="paint34_linear_6642_5157" x1="10.9412" y1="29.5309" x2="5.96077" y2="29.5309" gradientUnits="userSpaceOnUse">
<stop stop-color="#678D98" stop-opacity="0"/>
<stop offset="0.227" stop-color="#638892" stop-opacity="0.227"/>
<stop offset="0.522" stop-color="#597B82" stop-opacity="0.522"/>
<stop offset="0.853" stop-color="#476567" stop-opacity="0.853"/>
<stop offset="1" stop-color="#3E5959"/>
</linearGradient>
<linearGradient id="paint35_linear_6642_5157" x1="7.01771" y1="32.8477" x2="4.27442" y2="35.5909" gradientUnits="userSpaceOnUse">
<stop stop-color="#DEECF1" stop-opacity="0"/>
<stop offset="1" stop-color="#D9B1EE"/>
</linearGradient>
<linearGradient id="paint36_linear_6642_5157" x1="32.9594" y1="4.75949" x2="35.501" y2="7.30108" gradientUnits="userSpaceOnUse">
<stop stop-color="#5A5A5A"/>
<stop offset="1" stop-color="#444444"/>
</linearGradient>
<linearGradient id="paint37_linear_6642_5157" x1="32.8684" y1="4.22719" x2="31.8223" y2="2.56574" gradientUnits="userSpaceOnUse">
<stop stop-color="#433F43" stop-opacity="0"/>
<stop offset="0.317" stop-color="#3B373B" stop-opacity="0.317"/>
<stop offset="0.822" stop-color="#242324" stop-opacity="0.822"/>
<stop offset="1" stop-color="#1A1A1A"/>
</linearGradient>
<linearGradient id="paint38_linear_6642_5157" x1="34.4593" y1="5.53637" x2="35.8799" y2="4.11572" gradientUnits="userSpaceOnUse">
<stop stop-color="#433F43" stop-opacity="0"/>
<stop offset="0.317" stop-color="#3B373B" stop-opacity="0.317"/>
<stop offset="0.822" stop-color="#242324" stop-opacity="0.822"/>
<stop offset="1" stop-color="#1A1A1A"/>
</linearGradient>
<linearGradient id="paint39_linear_6642_5157" x1="11.8558" y1="27.3194" x2="12.7667" y2="28.2303" gradientUnits="userSpaceOnUse">
<stop stop-color="#DEECF1"/>
<stop offset="1" stop-color="#8EBAC5"/>
</linearGradient>
<linearGradient id="paint40_linear_6642_5157" x1="32.1585" y1="28.7627" x2="29.4526" y2="30.3313" gradientUnits="userSpaceOnUse">
<stop stop-color="#DEECF1" stop-opacity="0"/>
<stop offset="1" stop-color="#D9B1EE"/>
</linearGradient>
<linearGradient id="paint41_linear_6642_5157" x1="29.6631" y1="24.458" x2="26.9572" y2="26.0267" gradientUnits="userSpaceOnUse">
<stop stop-color="#DEECF1" stop-opacity="0"/>
<stop offset="1" stop-color="#D9B1EE"/>
</linearGradient>
<linearGradient id="paint42_linear_6642_5157" x1="12.0053" y1="34.5151" x2="9.97852" y2="36.5419" gradientUnits="userSpaceOnUse">
<stop stop-color="#DEECF1" stop-opacity="0"/>
<stop offset="1" stop-color="#D9B1EE"/>
</linearGradient>
<linearGradient id="paint43_linear_6642_5157" x1="13.3871" y1="29.8056" x2="11.5264" y2="31.6663" gradientUnits="userSpaceOnUse">
<stop stop-color="#8379C1" stop-opacity="0"/>
<stop offset="0.283" stop-color="#8374BE" stop-opacity="0.283"/>
<stop offset="0.586" stop-color="#8268B5" stop-opacity="0.586"/>
<stop offset="0.898" stop-color="#8152A6" stop-opacity="0.898"/>
<stop offset="1" stop-color="#814AA0"/>
</linearGradient>
<linearGradient id="paint44_linear_6642_5157" x1="10.5824" y1="25.9552" x2="8.19178" y2="28.3458" gradientUnits="userSpaceOnUse">
<stop stop-color="#8379C1" stop-opacity="0"/>
<stop offset="0.283" stop-color="#8374BE" stop-opacity="0.283"/>
<stop offset="0.586" stop-color="#8268B5" stop-opacity="0.586"/>
<stop offset="0.898" stop-color="#8152A6" stop-opacity="0.898"/>
<stop offset="1" stop-color="#814AA0"/>
</linearGradient>
<linearGradient id="paint45_linear_6642_5157" x1="14.181" y1="25.6843" x2="11.8257" y2="28.0396" gradientUnits="userSpaceOnUse">
<stop stop-color="#8379C1" stop-opacity="0"/>
<stop offset="0.283" stop-color="#8374BE" stop-opacity="0.283"/>
<stop offset="0.586" stop-color="#8268B5" stop-opacity="0.586"/>
<stop offset="0.898" stop-color="#8152A6" stop-opacity="0.898"/>
<stop offset="1" stop-color="#814AA0"/>
</linearGradient>
<linearGradient id="paint46_linear_6642_5157" x1="8.02292" y1="25.1994" x2="5.92402" y2="27.2983" gradientUnits="userSpaceOnUse">
<stop stop-color="#8379C1" stop-opacity="0"/>
<stop offset="0.283" stop-color="#8374BE" stop-opacity="0.283"/>
<stop offset="0.586" stop-color="#8268B5" stop-opacity="0.586"/>
<stop offset="0.898" stop-color="#8152A6" stop-opacity="0.898"/>
<stop offset="1" stop-color="#814AA0"/>
</linearGradient>
<linearGradient id="paint47_linear_6642_5157" x1="15.8039" y1="34.5566" x2="12.3704" y2="34.5566" gradientUnits="userSpaceOnUse">
<stop stop-color="#678D98" stop-opacity="0"/>
<stop offset="0.227" stop-color="#638892" stop-opacity="0.227"/>
<stop offset="0.522" stop-color="#597B82" stop-opacity="0.522"/>
<stop offset="0.853" stop-color="#476567" stop-opacity="0.853"/>
<stop offset="1" stop-color="#3E5959"/>
</linearGradient>
<linearGradient id="paint48_linear_6642_5157" x1="11.4857" y1="7.69319" x2="9.87787" y2="9.73241" gradientUnits="userSpaceOnUse">
<stop stop-color="#DEECF1" stop-opacity="0"/>
<stop offset="1" stop-color="#D9B1EE"/>
</linearGradient>
<linearGradient id="paint49_linear_6642_5157" x1="15.3316" y1="10.7256" x2="13.7237" y2="12.7648" gradientUnits="userSpaceOnUse">
<stop stop-color="#DEECF1" stop-opacity="0"/>
<stop offset="1" stop-color="#D9B1EE"/>
</linearGradient>
<linearGradient id="paint50_linear_6642_5157" x1="15.0148" y1="7.75997" x2="12.0334" y2="10.7414" gradientUnits="userSpaceOnUse">
<stop stop-color="#8379C1" stop-opacity="0"/>
<stop offset="0.283" stop-color="#8374BE" stop-opacity="0.283"/>
<stop offset="0.586" stop-color="#8268B5" stop-opacity="0.586"/>
<stop offset="0.898" stop-color="#8152A6" stop-opacity="0.898"/>
<stop offset="1" stop-color="#814AA0"/>
</linearGradient>
<linearGradient id="paint51_linear_6642_5157" x1="34.3921" y1="29.5463" x2="30.5096" y2="29.5463" gradientUnits="userSpaceOnUse">
<stop stop-color="#678D98" stop-opacity="0"/>
<stop offset="0.227" stop-color="#638892" stop-opacity="0.227"/>
<stop offset="0.522" stop-color="#597B82" stop-opacity="0.522"/>
<stop offset="0.853" stop-color="#476567" stop-opacity="0.853"/>
<stop offset="1" stop-color="#3E5959"/>
</linearGradient>
<linearGradient id="paint52_linear_6642_5157" x1="32.7179" y1="24.5055" x2="29.8551" y2="27.1721" gradientUnits="userSpaceOnUse">
<stop stop-color="#8379C1" stop-opacity="0"/>
<stop offset="0.283" stop-color="#8374BE" stop-opacity="0.283"/>
<stop offset="0.586" stop-color="#8268B5" stop-opacity="0.586"/>
<stop offset="0.898" stop-color="#8152A6" stop-opacity="0.898"/>
<stop offset="1" stop-color="#814AA0"/>
</linearGradient>
<clipPath id="clip0_6642_5157">
<rect width="40" height="40" fill="white"/>
</clipPath>
</defs>
</svg>
