<svg width="28" height="34" viewBox="0 0 28 34" fill="none" xmlns="http://www.w3.org/2000/svg">
<g clip-path="url(#clip0_6631_4564)">
<g clip-path="url(#clip1_6631_4564)">
<g clip-path="url(#clip2_6631_4564)">
<path d="M27.5563 6.7063V15.7625C27.5563 23.975 21.9876 31.175 14.0001 33.2C6.0126 31.175 0.443848 23.975 0.443848 15.7625V6.7063C6.6876 5.97505 10.2876 3.61255 14.0001 0.800049C17.7126 3.61255 21.3126 5.97505 27.5563 6.7063Z" fill="#FFD15D"/>
<path d="M14 29.6C7.98125 27.6875 3.875 22.1187 3.875 15.7625V9.6312C8.09375 8.7312 11.1875 6.98745 14 5.07495C16.8687 7.0437 19.9062 8.7312 24.125 9.6312V15.7625C24.125 22.1187 20.0187 27.6875 14 29.6Z" fill="#F5B92D"/>
<path d="M11.75 22.5126L8.375 19.1938L10.1188 17.5063L11.75 19.1376L17.8813 13.0063L19.625 14.6938L11.75 22.5126Z" fill="white"/>
</g>
</g>
</g>
<defs>
<clipPath id="clip0_6631_4564">
<rect width="28" height="34" fill="white"/>
</clipPath>
<clipPath id="clip1_6631_4564">
<rect width="28" height="34" fill="white"/>
</clipPath>
<clipPath id="clip2_6631_4564">
<rect width="28" height="34" fill="white"/>
</clipPath>
</defs>
</svg>
