<svg width="30" height="30" viewBox="0 0 30 30" fill="none" xmlns="http://www.w3.org/2000/svg">
<path d="M26.2782 25.2844L18.9891 17.9954C18.6841 18.3519 18.3519 18.6841 17.9954 18.9891L25.2844 26.2782C25.9172 26.9344 26.9344 25.9219 26.2782 25.2844Z" fill="#553C8B"/>
<path d="M12.3047 3.51562C0.689111 3.88594 0.689111 20.7234 12.3047 21.0938C23.9297 20.6719 23.9391 3.92812 12.3047 3.51562Z" fill="#9EA9F0"/>
<path d="M7.03125 13.0078C6.84477 13.0078 6.66593 12.9337 6.53407 12.8019C6.4022 12.67 6.32813 12.4912 6.32812 12.3047C6.32937 10.72 6.95944 9.20054 8.07999 8.07999C9.20054 6.95944 10.72 6.32937 12.3047 6.32812C12.4912 6.32813 12.67 6.4022 12.8019 6.53407C12.9337 6.66593 13.0078 6.84477 13.0078 7.03125C13.0078 7.21773 12.9337 7.39657 12.8019 7.52843C12.67 7.6603 12.4912 7.73438 12.3047 7.73438C11.0929 7.73562 9.93119 8.21753 9.07436 9.07436C8.21753 9.93119 7.73562 11.0929 7.73438 12.3047C7.73438 12.4912 7.6603 12.67 7.52843 12.8019C7.39657 12.9337 7.21773 13.0078 7.03125 13.0078Z" fill="#CCC1FF"/>
</svg>
