<svg width="28" height="34" viewBox="0 0 28 34" fill="none" xmlns="http://www.w3.org/2000/svg">
<g clip-path="url(#clip0_6631_4553)">
<g clip-path="url(#clip1_6631_4553)">
<path d="M21.0916 3.46655H1.49155C0.718354 3.46655 0.0915527 4.09335 0.0915527 4.86655V16.0666C0.0915527 16.8398 0.718354 17.4666 1.49155 17.4666H21.0916C21.8648 17.4666 22.4916 16.8398 22.4916 16.0666V4.86655C22.4916 4.09335 21.8648 3.46655 21.0916 3.46655Z" fill="#48CE7A"/>
<path d="M0.0915527 5.7998H22.4916V9.06647H0.0915527V5.7998Z" fill="#25373D"/>
<path d="M5.69165 12.7999V12.3332C5.69165 11.8178 5.27378 11.3999 4.75832 11.3999H2.89165C2.37618 11.3999 1.95832 11.8178 1.95832 12.3332V12.7999C1.95832 13.3154 2.37618 13.7332 2.89165 13.7332H4.75832C5.27378 13.7332 5.69165 13.3154 5.69165 12.7999Z" fill="white"/>
<path d="M26.4073 15.0433C26.6187 15.0847 26.8092 15.1983 26.9462 15.3646C27.0831 15.5309 27.1581 15.7397 27.1581 15.9551V19.3669C27.1581 28.7409 20.5175 30.3182 19.3872 30.5189C19.2797 30.5385 19.1695 30.5385 19.0619 30.5189C17.9317 30.3182 11.291 28.7409 11.291 19.3669V15.9551C11.291 15.5118 11.6055 15.1273 12.0419 15.0433C15.6819 14.34 17.6881 12.9372 18.6023 12.1075C18.7724 11.9526 18.9942 11.8667 19.2243 11.8667C19.4545 11.8667 19.6763 11.9526 19.8464 12.1075C20.7611 12.9377 22.7677 14.34 26.4073 15.0433Z" fill="#D9F1F4"/>
<path d="M19.2249 28.6488C17.8916 28.3646 13.1582 26.8278 13.1582 19.3668V16.7147C16.059 16.0483 17.9924 14.9698 19.2249 14.0183C20.4569 14.9698 22.3907 16.0488 25.2915 16.7147V19.3668C25.2915 26.8292 20.5558 28.365 19.2249 28.6488Z" fill="#5DC9F4"/>
<path d="M18.3047 24.341L16.0839 22.1202C16.044 22.0804 16.0125 22.0332 15.9909 21.9812C15.9693 21.9293 15.9583 21.8736 15.9583 21.8173C15.9583 21.761 15.9693 21.7053 15.9909 21.6534C16.0125 21.6014 16.044 21.5542 16.0839 21.5144L16.9547 20.6436C16.9944 20.6038 17.0416 20.5722 17.0936 20.5507C17.1456 20.5291 17.2013 20.518 17.2575 20.518C17.3138 20.518 17.3695 20.5291 17.4215 20.5507C17.4734 20.5722 17.5206 20.6038 17.5604 20.6436L18.6076 21.6908L21.2214 19.077C21.2611 19.0372 21.3084 19.0056 21.3603 18.9841C21.4123 18.9625 21.468 18.9514 21.5243 18.9514C21.5805 18.9514 21.6362 18.9625 21.6882 18.9841C21.7402 19.0056 21.7874 19.0372 21.8271 19.077L22.6979 19.9478C22.7378 19.9876 22.7693 20.0348 22.7909 20.0868C22.8124 20.1387 22.8235 20.1944 22.8235 20.2507C22.8235 20.307 22.8124 20.3627 22.7909 20.4146C22.7693 20.4666 22.7378 20.5138 22.6979 20.5536L18.9105 24.341C18.8707 24.3808 18.8235 24.4124 18.7715 24.434C18.7196 24.4555 18.6639 24.4666 18.6076 24.4666C18.5513 24.4666 18.4956 24.4555 18.4437 24.434C18.3917 24.4124 18.3445 24.3808 18.3047 24.341Z" fill="white"/>
<path d="M15.4916 11.8664H7.55822C7.43445 11.8664 7.31575 11.8173 7.22824 11.7298C7.14072 11.6422 7.09155 11.5235 7.09155 11.3998C7.09155 11.276 7.14072 11.1573 7.22824 11.0698C7.31575 10.9823 7.43445 10.9331 7.55822 10.9331H15.4916C15.6153 10.9331 15.734 10.9823 15.8215 11.0698C15.9091 11.1573 15.9582 11.276 15.9582 11.3998C15.9582 11.5235 15.9091 11.6422 15.8215 11.7298C15.734 11.8173 15.6153 11.8664 15.4916 11.8664ZM12.2249 13.7331H7.55822C7.43445 13.7331 7.31575 13.6839 7.22824 13.5964C7.14072 13.5089 7.09155 13.3902 7.09155 13.2664C7.09155 13.1427 7.14072 13.024 7.22824 12.9365C7.31575 12.8489 7.43445 12.7998 7.55822 12.7998H12.2249C12.3487 12.7998 12.4674 12.8489 12.5549 12.9365C12.6424 13.024 12.6916 13.1427 12.6916 13.2664C12.6916 13.3902 12.6424 13.5089 12.5549 13.5964C12.4674 13.6839 12.3487 13.7331 12.2249 13.7331Z" fill="#339E5E"/>
</g>
</g>
<defs>
<clipPath id="clip0_6631_4553">
<rect width="28" height="34" fill="white"/>
</clipPath>
<clipPath id="clip1_6631_4553">
<rect width="28" height="28" fill="white" transform="translate(-0.375 3)"/>
</clipPath>
</defs>
</svg>
