<svg width="28" height="21" viewBox="0 0 28 21" fill="none" xmlns="http://www.w3.org/2000/svg">
<path d="M28 1.21729V18.2608C27.9988 18.9064 27.7429 19.5255 27.2878 19.9834L16.4347 9.13034L16.2643 8.86858L28 1.21729Z" fill="#F6B445"/>
<path d="M27.2878 19.9835C26.8299 20.4386 26.2108 20.6945 25.5652 20.6956H2.43478C1.78917 20.6945 1.1701 20.4386 0.712158 19.9835L11.5652 9.13041L11.7174 8.89302L14 10.3478L16.2644 8.86865L16.4348 9.13041L27.2878 19.9835Z" fill="#F6A645"/>
<path d="M11.7174 8.89301L11.5652 9.13041L0.712185 19.9835C0.257089 19.5255 0.00115106 18.9065 1.13339e-05 18.2608V2.43478C-0.000743486 2.18915 0.0362085 1.94486 0.109576 1.71045L0.608726 1.82606L11.7174 8.89301Z" fill="#F6B445"/>
<path d="M28.0001 1.21737L16.2644 8.86867L14.0001 10.3478L11.7175 8.89304L0.608768 1.82609L0.109619 1.71041C0.42673 0.692771 1.36893 -0.000285238 2.43485 8.80668e-08H24.9566C27.3913 8.80668e-08 28.0001 1.21737 28.0001 1.21737Z" fill="#FED049"/>
</svg>
