<svg width="24" height="24" viewBox="0 0 24 24" fill="none" xmlns="http://www.w3.org/2000/svg">
                              <path d="M18.33 3.57004L5.7 9.95504L6.49 10.025L4.53 8.54704C4.42352 8.46697 4.29764 8.4167 4.1653 8.40141C4.03295 8.38612 3.89893 8.40636 3.777 8.46004L1.677 9.38504C0.729997 9.85604 0.358997 10.967 0.816997 11.88C0.926997 12.1 1.08 12.297 1.267 12.457L5.264 15.859C5.70225 16.2343 6.24124 16.4724 6.81382 16.5435C7.38639 16.6146 7.96724 16.5157 8.484 16.259L12.104 14.459L11.02 13.788V19.375C11.0169 19.6891 11.0945 19.9988 11.2455 20.2742C11.3965 20.5497 11.6157 20.7817 11.8822 20.9481C12.1486 21.1144 12.4533 21.2095 12.7671 21.2242C13.0809 21.2389 13.3932 21.1727 13.674 21.032L15.554 20.1C15.7963 19.9794 16.0092 19.8072 16.1777 19.5953C16.3461 19.3835 16.4661 19.1373 16.529 18.874L18.399 11.035L18.003 11.533L21.444 9.82604C21.855 9.62183 22.2217 9.33868 22.5232 8.99275C22.8248 8.64681 23.0552 8.24488 23.2014 7.80988C23.3476 7.37488 23.4067 6.91535 23.3753 6.45752C23.344 5.99968 23.2227 5.55251 23.0185 5.14154C22.8143 4.73057 22.5311 4.36384 22.1852 4.0623C21.8393 3.76076 21.4373 3.5303 21.0023 3.3841C20.5673 3.23789 20.1078 3.1788 19.65 3.21019C19.1921 3.24158 18.745 3.36283 18.334 3.56704L18.33 3.57004ZM19.002 4.91204C19.4748 4.68268 20.0191 4.64924 20.5164 4.81899C21.0137 4.98875 21.424 5.34797 21.6579 5.81855C21.8918 6.28914 21.9305 6.83304 21.7655 7.33199C21.6006 7.83094 21.2453 8.24461 20.777 8.48304L17.337 10.19C17.2385 10.2389 17.152 10.3089 17.0836 10.395C17.0151 10.481 16.9665 10.5811 16.941 10.688L15.071 18.526C15.059 18.5759 15.0363 18.6225 15.0043 18.6626C14.9723 18.7027 14.9319 18.7353 14.886 18.758L13.006 19.69C12.9545 19.716 12.8973 19.7283 12.8397 19.7257C12.7821 19.723 12.7262 19.7056 12.6773 19.675C12.6284 19.6445 12.5883 19.6018 12.5607 19.5512C12.5332 19.5006 12.5191 19.4437 12.52 19.386V13.79C12.5201 13.6623 12.4875 13.5366 12.4254 13.425C12.3633 13.3134 12.2737 13.2194 12.1652 13.1521C12.0566 13.0848 11.9326 13.0463 11.805 13.0404C11.6774 13.0344 11.5504 13.0611 11.436 13.118L7.816 14.918C7.56269 15.0438 7.27796 15.0922 6.99734 15.0571C6.71671 15.0221 6.45262 14.9052 6.238 14.721L2.241 11.319C2.19762 11.2813 2.16421 11.2335 2.14372 11.1797C2.12322 11.126 2.11628 11.0681 2.1235 11.0111C2.13071 10.954 2.15187 10.8996 2.18509 10.8527C2.21832 10.8058 2.26259 10.7678 2.314 10.742L4.381 9.83204L3.627 9.74504L5.587 11.223C5.69898 11.3074 5.83235 11.3586 5.97199 11.371C6.11162 11.3834 6.25193 11.3564 6.377 11.293L19.007 4.91004L19.002 4.91204ZM15.73 5.23104L11.27 2.97104C11.013 2.84223 10.7296 2.77508 10.4421 2.7749C10.1547 2.77473 9.87113 2.84154 9.614 2.97004L7.768 3.88204C7.48656 4.02231 7.24552 4.23201 7.06765 4.49132C6.88978 4.75064 6.78094 5.05101 6.75141 5.36408C6.72189 5.67714 6.77265 5.99257 6.89891 6.28057C7.02516 6.56856 7.22275 6.81963 7.473 7.01004L10.046 8.96504C10.1244 9.02466 10.2138 9.06825 10.309 9.09333C10.4043 9.11841 10.5035 9.12449 10.6011 9.11121C10.6987 9.09793 10.7927 9.06556 10.8778 9.01594C10.9629 8.96633 11.0374 8.90044 11.097 8.82204C11.1566 8.74364 11.2002 8.65427 11.2253 8.55902C11.2504 8.46377 11.2564 8.36452 11.2432 8.26692C11.2299 8.16933 11.1975 8.07531 11.1479 7.99022C11.0983 7.90514 11.0324 7.83066 10.954 7.77104L8.38 5.81604C8.3328 5.78005 8.29553 5.73264 8.2717 5.67829C8.24786 5.62393 8.23824 5.5644 8.24374 5.5053C8.24924 5.4462 8.26968 5.38947 8.30314 5.34044C8.33659 5.29142 8.38197 5.2517 8.435 5.22504L10.28 4.31304C10.3288 4.28842 10.3828 4.2756 10.4375 4.2756C10.4922 4.2756 10.5461 4.28842 10.595 4.31304L15.051 6.56904C15.2283 6.65762 15.4334 6.67243 15.6216 6.61023C15.8097 6.54804 15.9656 6.4139 16.0552 6.23713C16.1448 6.06035 16.1608 5.85531 16.0996 5.66679C16.0385 5.47828 15.9063 5.32162 15.73 5.23104Z" fill="#94A3B8"></path>
                           </svg>